<?xml version="1.0" encoding="utf-8"?>
<!-- Generator: Adobe Illustrator 26.5.0, SVG Export Plug-In . SVG Version: 6.00 Build 0)  -->
<svg version="1.1" id="Capa_1" xmlns="http://www.w3.org/2000/svg" xmlns:xlink="http://www.w3.org/1999/xlink" x="0px" y="0px"
	 viewBox="0 0 841.9 841.9" style="enable-background:new 0 0 841.9 841.9;" xml:space="preserve">
<style type="text/css">
	.st0{display:none;}
	.st1{display:inline;}
	.st2{display:none;fill:#D9A0C8;}
	.st3{display:none;fill:#752768;}
	.st4{fill:#C3AED5;}
	.st5{fill:#F6AB89;}
	.st6{fill:#432900;}
	.st7{fill:#D49B8B;}
	.st8{fill:#E77493;}
	.st9{fill:#97AAD8;}
	.st10{fill:#BA255D;}
	.st11{fill:#A51644;}
	.st12{fill:#EDEDED;}
	.st13{fill:#614021;}
	.st14{fill:#925F37;}
	.st15{fill:#FFFFFF;}
	.st16{fill:#BA7273;}
	.st17{opacity:0.28;}
	.st18{fill:#EBCC8A;}
	.st19{fill:#BE6F8E;}
	.st20{fill:#855784;}
	.st21{font-family:'Chantal-LightItalic';}
	.st22{font-size:28.6926px;}
	.st23{font-size:40px;}
	.st24{font-size:37px;}
	.st25{font-size:34px;}
	.st26{fill:#AB6580;}
	.st27{fill:url(#SVGID_1_);}
	.st28{display:none;fill:#241100;}
	.st29{display:none;fill:none;}
	.st30{display:none;fill:#F4A38E;}
	.st31{fill:#AD4632;}
	.st32{fill:none;stroke:#784728;stroke-width:0.25;stroke-linecap:round;stroke-miterlimit:10;}
	.st33{fill:#F4A38E;}
	.st34{fill:#C8C8C8;}
	.st35{fill:#E49985;}
	.st36{fill:#306A58;}
	.st37{fill:#3D8770;}
	.st38{opacity:0.25;}
	.st39{fill:#E7D49D;}
	.st40{fill:#EEB4D3;}
	.st41{fill:#D6BF80;}
	.st42{fill:#C8B379;}
	.st43{fill:#C72645;}
	.st44{fill:#681411;}
	.st45{fill:none;}
	.st46{fill:#F4A5AF;}
	.st47{fill:#FDF0F4;}
	.st48{fill:#C27851;}
	.st49{fill:#F1876A;}
	.st50{fill:url(#SVGID_00000056396897030219386450000009020407207340664499_);}
	.st51{fill:#862453;}
	.st52{fill:#84376B;}
	.st53{fill:#955AA0;}
	.st54{fill:#891E82;}
	.st55{fill:#C191B3;}
	.st56{fill:#C28473;}
	.st57{fill:#B9724D;}
	.st58{fill:#99674D;}
	.st59{fill:#501E0D;}
	.st60{fill:#835841;}
	.st61{fill:#6A3D00;}
	.st62{fill:#4D2C00;}
	.st63{fill:#221000;}
	.st64{fill:#88433B;}
	.st65{fill:#66312A;}
	.st66{fill:#E94753;}
	.st67{fill:#882B2F;}
	.st68{fill:#A33439;}
	.st69{fill:#F28E20;}
	.st70{fill:url(#SVGID_00000084518299223418438280000016196588187938466233_);}
	.st71{fill:#78513B;}
	.st72{fill:#C73E47;}
</style>
<g id="fONDO">
	<g class="st0">
		<g class="st1">
			<rect x="123.3" y="0" class="st2" width="595.3" height="841.9"/>
			<path class="st3" d="M582.9,530.4c7,6.1,12.2,13.3,15.9,21.6c5.7,13,6.9,26.6,6.2,40.5c-0.7,13.7-1.6,27.5-1.8,41.2
				c-0.1,10.1,1.8,20.1,7.5,28.7c2.6,4,6.2,7.7,10.1,10.6c5.5,4,12.1,1.9,15.3-4.1c2.8-5.3,3.2-11,3.1-16.9
				c0-11.2-4.4-21.5-6.6-32.2c-5.1-24.9-5.3-49.8,1-74.5c4.8-18.8,13.7-35.5,28.1-49.2c-0.7,1.2-1.4,2.5-2.1,3.8
				c-7.4,13.2-11.9,27.5-15.1,42.2c-2.9,13.6-3.8,27.4-3,41.2c0.8,13.5,4.4,26.4,10.4,38.6c5.4,11,9.6,22.3,11.6,34.4
				c2.7,16.2-0.1,31.4-8,45.8c-5.5,10.1-12.7,19.1-21,27.1c-9.7,9.3-18.4,19.5-24.7,31.4c-7.9,14.8-12.4,30.5-9.8,47.4
				c1.8,12.1,7.2,22.6,15.6,31.6c0.5,0.6,1.1,1.2,1.9,2c-1,0.1-1.7,0.2-2.5,0.2c-65.1,0-130.1,0-195.2,0c-12.9,0-25.8,0.1-38.7-0.1
				c-1.5,0-3.4-0.7-4.4-1.8c-13.6-14.9-24.5-31.3-28.6-51.4c-2.3-11.3-2.1-22.7-0.1-34.1c4.2-23.7,14-45.4,25-66.6
				c7.6-14.8,16.1-29.1,23.8-43.8c6.4-12.2,11.5-24.9,14.5-38.3c2.3-10.2,3.5-20.4,0.9-30.6c-1.3-5.2-3.8-9.9-9.3-11.9
				c-5.3-2-10.5-0.8-14.6,2.5c-8.5,6.8-15.3,15.1-16.6,26.3c-0.9,7.7-0.8,15.4-0.9,23.2c-0.1,11.8-2.7,23-7.5,33.7
				c-0.1,0.3-0.4,0.6-1.1,1.6c0.3-4.3,0.5-7.8,0.7-11.4c0.8-14.2-5.2-25.4-15.8-34.4c-10-8.5-20.6-16.6-30.5-25.3
				c-13.3-11.7-25.6-24.3-34.8-39.6c-7.2-11.9-9.6-25.1-9.3-38.8c0.4-18.6,5.7-36.2,10.8-54c4.3-15.1,8.7-30.3,12.1-45.7
				c2.9-13.1,2.8-26.4-3.4-38.8c-2.4-4.9-6.2-9-9.4-13.5c-0.6-0.8-1.4-1.5-1.7-2.7c1.6,0.9,3.2,1.6,4.7,2.6
				c16.1,10,26.4,24,29.4,42.7c1.6,10.2,1.7,20.5,1,30.9c-1.2,18.8-2.6,37.6-3.1,56.5c-0.2,10.3,3.1,20,11.7,26.9
				c7,5.6,15,6.8,23.4,3.6c8.9-3.5,14.4-10.1,16-19.6c2.3-14.1-1-27.5-5.8-40.5c-5.9-15.8-12.3-31.4-18.6-47.1
				c-7.6-19-14.2-38.2-17.5-58.4c-3.9-23.4-1.7-46.3,5.1-68.9c6-20,14.5-38.9,23.4-57.8c5.9-12.4,11.8-24.7,14.8-38.2
				c2.2-9.8,2.4-19.4-0.6-29.1c-0.1-0.5-0.2-1-0.3-1.4c0.3-0.1,0.6-0.2,0.9-0.3c1.7,4.6,3.9,9.1,5.1,13.9c3.5,13,3.1,26.2,1.7,39.4
				c-2.4,21.5-8.2,42.3-12.9,63.4c-2.8,12.5-5.7,25-5.2,38c0.2,6.2,1.2,12.3,5.6,17.1c4.3,4.7,9.7,7.6,16.4,6.4
				c7-1.3,11.5-8,12-16.1c0.9-12.5-4.4-23.1-11.4-33.1c-0.9-1.3-1.9-2.5-2.8-3.8c0.2-0.2,0.4-0.4,0.6-0.6c2.3,2.2,4.7,4.4,6.9,6.7
				c8.3,8.6,14.6,18.3,16.7,30.3c1.4,8.3,1.1,16.7-0.6,24.8c-2.4,11.5-5.6,22.9-8.4,34.3c-3.1,12.7-3.5,25.2,3,37.1
				c9.2,17,28.8,17.9,40.1,2c6.2-8.7,7.1-18.4,5-28.4c-3-14.5-9.4-27.8-15-41.3c-6.7-16.1-13.5-32.3-17.8-49.2
				c-2.8-10.8-2.7-21.8-1.4-32.9c2.8-25,11.4-48.5,19.4-72.1c6.6-19.5,13.1-39,18.9-58.7c4.4-14.8,6.2-30.1,5.2-45.5
				c-0.4-6.2-2.1-12.2-3.2-18.3c-0.1-0.7-0.3-1.3-0.4-2c0.3-0.1,0.6-0.2,0.9-0.3c2.3,6.8,4.9,13.4,6.8,20.3c4.9,17.7,6,35.8,3.3,54
				c-2.5,16.9-5.8,33.7-9,50.5c-3.8,20-6.9,40.2-5.6,60.6c1.2,19,6,37.2,14.4,54.4c6.6,13.4,13.7,26.6,20.4,40
				c8.4,16.9,15.9,34.3,21,52.5c8.5,30.9,7.2,61.3-4.4,91.3c-6.6,17-16,32.5-26.1,47.6c-10.1,15-19.8,30.2-26.9,46.9
				c-5.2,12-8.9,24.4-8.7,37.7c0.3,16.8,12.2,33.4,28.2,38.8c8.5,2.8,17.9-0.9,24-9.8c7.5-10.9,9.5-23.3,8.5-36.1
				c-0.5-6.5-2.5-12.9-3.9-19.4c-0.1-0.4,0-0.8,0.4-1.3c1.6,3.7,3.4,7.4,4.9,11.2c5.2,13.3,7.8,27.2,6.7,41.5c-0.9,12-4,23.5-9.7,34
				c-7.5,13.9-15.8,27.5-23.6,41.2c-6,10.5-11.5,21.4-13.2,33.5c-3.2,22.7,1.6,43.1,19.1,59.2c8.9,8.2,19.8,13.1,31.8,15
				c27,4.2,49.9-4.2,68.7-23.4c10.8-11.1,16.6-24.9,19-40.1c2.6-16.3,0.3-32.1-3.5-47.9c-2.6-10.7-5.3-21.3-8.3-31.8
				c-3.7-13.4-3.8-26.9-0.8-40.4c3.1-13.8,6.6-27.6,9.7-41.5c3.9-17.5,5.7-35,1-52.6c-1.2-4.3-3-8.5-4.5-12.7
				C583.6,531.9,583.2,531.2,582.9,530.4z"/>
			<path class="st3" d="M503.5,739.7c5.2-6.3,11-12.4,15.6-19.3c9.1-13.4,11.7-28.5,10.5-44.4c-1.7-22.5-9.2-43.7-15.7-65.1
				c-5.2-17.1-10.3-34.2-13-51.9c-3.6-23.4-2.6-46.5,5.4-69c6.4-18.1,16.4-34,28.7-48.6c0.6-0.7,1.2-1.5,2.3-1.9
				c-2,4.1-4.3,8-6.1,12.2c-6.6,14.9-7.9,30.5-6.2,46.4c2.2,20.3,8.8,39.5,15.6,58.6c7.1,20,14.4,40,20.7,60.2
				c4.7,15.2,6.7,30.9,4.7,46.9c-2.2,17.2-9.4,32.2-21,45c-11.8,13-26.2,22.5-41.6,30.7C503.1,739.6,503,739.5,503.5,739.7z"/>
			<path class="st3" d="M215.6,427.5c14.1,14.7,24.4,31.6,28.4,51.8c3.4,17.1,2.3,34.2-2.5,50.8c-5.4,18.5-11.8,36.6-17.7,54.9
				c-4.8,14.9-9,30-8.8,45.9c0.3,16.2,5.4,30.8,15.4,43.5c4,5.1,8.6,9.9,13.4,15.3c-2.9-1.8-5.3-3.1-7.6-4.7
				c-11.7-7.8-22.9-16.3-32.6-26.5c-11.9-12.5-21.2-26.5-24.8-43.7c-3.4-16.6-1.4-32.8,5-48.2c5.8-14.1,12.6-27.8,19.3-41.5
				c8-16.2,14.5-32.9,18.9-50.3c2.7-10.6,4.4-21.6,0.8-32.4c-1.3-4-3.4-7.6-5.3-11.4C217.1,429.9,216.3,428.7,215.6,427.5z"/>
			<path class="st3" d="M349.2,841.9c-7-4.2-14.1-8.3-21.1-12.7c-13.2-8.2-25.4-17.5-36.1-28.7c-10.1-10.7-17.9-22.6-21-37.2
				c-2.4-11.3-1.4-22.4,1.9-33.5c4.5-15.3,12.6-28.9,20.9-42.3c8.7-14,18.2-27.6,25.1-42.7c4.3-9.5,7.5-19.2,7.1-29.8
				c-0.2-6-1.7-11.6-4.2-17c-0.5-1.1-1-2.1-1.2-3.3c7.5,7.9,13.4,16.8,16.9,27.2c4.5,13.5,4,27.2-0.7,40.4
				c-5.4,15.2-11.8,30.1-17.8,45.1c-4.6,11.5-8.8,23.2-10.6,35.5c-2.6,17.9-0.1,35.2,7.5,51.8c6.8,14.7,16.3,27.6,27.2,39.5
				c2.2,2.4,4.4,4.7,6.6,7C349.5,841.4,349.3,841.7,349.2,841.9z"/>
			<path class="st3" d="M489.7,140.1c-1.8,4.8-3.5,9.1-5,13.5c-4.3,13.4-2.5,26.5,2.5,39.3c5,12.8,12.6,24,19.9,35.6
				c6.2,9.9,12.4,19.9,17.8,30.3c5.5,10.4,8.4,21.5,8.1,33.4c-0.3,12.2-4.5,23-10.9,33.2c-6.7,10.7-15.2,20-24.6,28.5
				c-0.2,0.2-0.6,0.4-0.8,0.5c2.4-4.7,5.1-9.3,7-14.1c5-12.5,3.7-25-0.5-37.5c-5.3-15.9-14.2-29.9-22-44.6
				c-6.8-12.7-13.2-25.5-16.7-39.6c-4.9-19.8-2.2-38.4,8-56C477.2,154.5,482.7,147,489.7,140.1z"/>
			<path class="st3" d="M417.9,0c-2.7,4.5-5.2,8.2-7.2,12.2c-5.8,11.8-5.5,24-1.3,36.1c4.3,12.4,9.5,24.6,13.7,37
				c7,20.7,4.8,40.4-7.5,58.7c-4.7,6.9-10,13.3-15.1,20c-0.2-0.2-0.4-0.3-0.6-0.5c1.6-3.6,3.4-7.1,4.6-10.9
				c3.3-10.1,2.3-20.3-1.2-30.1c-4.5-12.9-9.8-25.5-14.8-38.2c-3.5-8.8-6.2-17.8-7-27.2c-0.9-10.6,1.5-20.5,7.1-29.6
				C395.7,16,406.1,7.8,417.9,0z"/>
		</g>
	</g>
	<g>
		<path class="st3" d="M583,530.4c7,6.1,12.2,13.3,15.9,21.6c5.7,13,6.9,26.6,6.2,40.5c-0.7,13.7-1.6,27.5-1.8,41.2
			c-0.1,10.1,1.8,20.1,7.5,28.7c2.6,4,6.2,7.7,10.1,10.6c5.5,4,12.1,1.9,15.3-4.1c2.8-5.3,3.2-11,3.1-16.9c0-11.2-4.4-21.5-6.6-32.2
			c-5.1-24.9-5.3-49.8,1-74.5c4.8-18.8,13.7-35.5,28.1-49.2c-0.7,1.2-1.4,2.5-2.1,3.8c-7.4,13.2-11.9,27.5-15.1,42.2
			c-2.9,13.6-3.8,27.4-3,41.2c0.8,13.5,4.4,26.4,10.4,38.6c5.4,11,9.6,22.3,11.6,34.4c2.7,16.2-0.1,31.4-8,45.8
			c-5.5,10.1-12.7,19.1-21,27.1c-9.7,9.3-18.4,19.5-24.7,31.4c-7.9,14.8-12.4,30.5-9.8,47.4c1.8,12.1,7.2,22.6,15.6,31.6
			c0.5,0.6,1.1,1.2,1.9,2c-1,0.1-1.7,0.2-2.5,0.2c-65.1,0-130.1,0-195.2,0c-12.9,0-25.8,0.1-38.7-0.1c-1.5,0-3.4-0.7-4.4-1.8
			c-13.6-14.9-24.5-31.3-28.6-51.4c-2.3-11.3-2.1-22.7-0.1-34.1c4.2-23.7,14-45.4,25-66.6c7.6-14.8,16.1-29.1,23.8-43.8
			c6.4-12.2,11.5-24.9,14.5-38.3c2.3-10.2,3.5-20.4,0.9-30.6c-1.3-5.2-3.8-9.9-9.3-11.9c-5.3-2-10.5-0.8-14.6,2.5
			c-8.5,6.8-15.3,15.1-16.6,26.3c-0.9,7.7-0.8,15.4-0.9,23.2c-0.1,11.8-2.7,23-7.5,33.7c-0.1,0.3-0.4,0.6-1.1,1.6
			c0.3-4.3,0.5-7.8,0.7-11.4c0.8-14.2-5.2-25.4-15.8-34.4c-10-8.5-20.6-16.6-30.5-25.3c-13.3-11.7-25.6-24.3-34.8-39.6
			c-7.2-11.9-9.6-25.1-9.3-38.8c0.4-18.6,5.7-36.2,10.8-54c4.3-15.1,8.7-30.3,12.1-45.7c2.9-13.1,2.8-26.4-3.4-38.8
			c-2.4-4.9-6.2-9-9.4-13.5c-0.6-0.8-1.4-1.5-1.7-2.7c1.6,0.9,3.2,1.6,4.7,2.6c16.1,10,26.4,24,29.4,42.7c1.6,10.2,1.7,20.5,1,30.9
			c-1.2,18.8-2.6,37.6-3.1,56.5c-0.2,10.3,3.1,20,11.7,26.9c7,5.6,15,6.8,23.4,3.6c8.9-3.5,14.4-10.1,16-19.6
			c2.3-14.1-1-27.5-5.8-40.5c-5.9-15.8-12.3-31.4-18.6-47.1c-7.6-19-14.2-38.2-17.5-58.4c-3.9-23.4-1.7-46.3,5.1-68.9
			c6-20,14.5-38.9,23.4-57.8c5.9-12.4,11.8-24.7,14.8-38.2c2.2-9.8,2.4-19.4-0.6-29.1c-0.1-0.5-0.2-1-0.3-1.4
			c0.3-0.1,0.6-0.2,0.9-0.3c1.7,4.6,3.9,9.1,5.1,13.9c3.5,13,3.1,26.2,1.7,39.4c-2.4,21.5-8.2,42.3-12.9,63.4
			c-2.8,12.5-5.7,25-5.2,38c0.2,6.2,1.2,12.3,5.6,17.1c4.3,4.7,9.7,7.6,16.4,6.4c7-1.3,11.5-8,12-16.1c0.9-12.5-4.4-23.1-11.4-33.1
			c-0.9-1.3-1.9-2.5-2.8-3.8c0.2-0.2,0.4-0.4,0.6-0.6c2.3,2.2,4.7,4.4,6.9,6.7c8.3,8.6,14.6,18.3,16.7,30.3
			c1.4,8.3,1.1,16.7-0.6,24.8c-2.4,11.5-5.6,22.9-8.4,34.3c-3.1,12.7-3.5,25.2,3,37.1c9.2,17,28.8,17.9,40.1,2
			c6.2-8.7,7.1-18.4,5-28.4c-3-14.5-9.4-27.8-15-41.3c-6.7-16.1-13.5-32.3-17.8-49.2c-2.8-10.8-2.7-21.8-1.4-32.9
			c2.8-25,11.4-48.5,19.4-72.1c6.6-19.5,13.1-39,18.9-58.7c4.4-14.8,6.2-30.1,5.2-45.5c-0.4-6.2-2.1-12.2-3.2-18.3
			c-0.1-0.7-0.3-1.3-0.4-2c0.3-0.1,0.6-0.2,0.9-0.3c2.3,6.8,4.9,13.4,6.8,20.3c4.9,17.7,6,35.8,3.3,54c-2.5,16.9-5.8,33.7-9,50.5
			c-3.8,20-6.9,40.2-5.6,60.6c1.2,19,6,37.2,14.4,54.4c6.6,13.4,13.7,26.6,20.4,40c8.4,16.9,15.9,34.3,21,52.5
			c8.5,30.9,7.2,61.3-4.4,91.3c-6.6,17-16,32.5-26.1,47.6c-10.1,15-19.8,30.2-26.9,46.9c-5.2,12-8.9,24.4-8.7,37.7
			c0.3,16.8,12.2,33.4,28.2,38.8c8.5,2.8,17.9-0.9,24-9.8c7.5-10.9,9.5-23.3,8.5-36.1c-0.5-6.5-2.5-12.9-3.9-19.4
			c-0.1-0.4,0-0.8,0.4-1.3c1.6,3.7,3.4,7.4,4.9,11.2c5.2,13.3,7.8,27.2,6.7,41.5c-0.9,12-4,23.5-9.7,34
			c-7.5,13.9-15.8,27.5-23.6,41.2c-6,10.5-11.5,21.4-13.2,33.5c-3.2,22.7,1.6,43.1,19.1,59.2c8.9,8.2,19.8,13.1,31.8,15
			c27,4.2,49.9-4.2,68.7-23.4c10.8-11.1,16.6-24.9,19-40.1c2.6-16.3,0.3-32.1-3.5-47.9c-2.6-10.7-5.3-21.3-8.3-31.8
			c-3.7-13.4-3.8-26.9-0.8-40.4c3.1-13.8,6.6-27.6,9.7-41.5c3.9-17.5,5.7-35,1-52.6c-1.2-4.3-3-8.5-4.5-12.7
			C583.6,531.9,583.3,531.2,583,530.4z"/>
		<path class="st3" d="M503.5,739.7c5.2-6.3,11-12.4,15.6-19.3c9.1-13.4,11.7-28.5,10.5-44.4c-1.7-22.5-9.2-43.7-15.7-65.1
			c-5.2-17.1-10.3-34.2-13-51.9c-3.6-23.4-2.6-46.5,5.4-69c6.4-18.1,16.4-34,28.7-48.6c0.6-0.7,1.2-1.5,2.3-1.9
			c-2,4.1-4.3,8-6.1,12.2c-6.6,14.9-7.9,30.5-6.2,46.4c2.2,20.3,8.8,39.5,15.6,58.6c7.1,20,14.4,40,20.7,60.2
			c4.7,15.2,6.7,30.9,4.7,46.9c-2.2,17.2-9.4,32.2-21,45c-11.8,13-26.2,22.5-41.6,30.7C503.2,739.6,503,739.5,503.5,739.7z"/>
		<path class="st3" d="M215.6,427.5c14.1,14.7,24.4,31.6,28.4,51.8c3.4,17.1,2.3,34.2-2.5,50.8c-5.4,18.5-11.8,36.6-17.7,54.9
			c-4.8,14.9-9,30-8.8,45.9c0.3,16.2,5.4,30.8,15.4,43.5c4,5.1,8.6,9.9,13.4,15.3c-2.9-1.8-5.3-3.1-7.6-4.7
			c-11.7-7.8-22.9-16.3-32.6-26.5c-11.9-12.5-21.2-26.5-24.8-43.7c-3.4-16.6-1.4-32.8,5-48.2c5.8-14.1,12.6-27.8,19.3-41.5
			c8-16.2,14.5-32.9,18.9-50.3c2.7-10.6,4.4-21.6,0.8-32.4c-1.3-4-3.4-7.6-5.3-11.4C217.1,429.9,216.3,428.7,215.6,427.5z"/>
		<path class="st3" d="M349.2,841.9c-7-4.2-14.1-8.3-21.1-12.7c-13.2-8.2-25.4-17.5-36.1-28.7c-10.1-10.7-17.9-22.6-21-37.2
			c-2.4-11.3-1.4-22.4,1.9-33.5c4.5-15.3,12.6-28.9,20.9-42.3c8.7-14,18.2-27.6,25.1-42.7c4.3-9.5,7.5-19.2,7.1-29.8
			c-0.2-6-1.7-11.6-4.2-17c-0.5-1.1-1-2.1-1.2-3.3c7.5,7.9,13.4,16.8,16.9,27.2c4.5,13.5,4,27.2-0.7,40.4
			c-5.4,15.2-11.8,30.1-17.8,45.1c-4.6,11.5-8.8,23.2-10.6,35.5c-2.6,17.9-0.1,35.2,7.5,51.8c6.8,14.7,16.3,27.6,27.2,39.5
			c2.2,2.4,4.4,4.7,6.6,7C349.5,841.4,349.4,841.7,349.2,841.9z"/>
		<path class="st3" d="M489.8,140.1c-1.8,4.8-3.5,9.1-5,13.5c-4.3,13.4-2.5,26.5,2.5,39.3c5,12.8,12.6,24,19.9,35.6
			c6.2,9.9,12.4,19.9,17.8,30.3c5.5,10.4,8.4,21.5,8.1,33.4c-0.3,12.2-4.5,23-10.9,33.2c-6.7,10.7-15.2,20-24.6,28.5
			c-0.2,0.2-0.6,0.4-0.8,0.5c2.4-4.7,5.1-9.3,7-14.1c5-12.5,3.7-25-0.5-37.5c-5.3-15.9-14.2-29.9-22-44.6
			c-6.8-12.7-13.2-25.5-16.7-39.6c-4.9-19.8-2.2-38.4,8-56C477.3,154.5,482.8,147,489.8,140.1z"/>
		<path class="st3" d="M418,0c-2.7,4.5-5.2,8.2-7.2,12.2c-5.8,11.8-5.5,24-1.3,36.1c4.3,12.4,9.5,24.6,13.7,37
			c7,20.7,4.8,40.4-7.5,58.7c-4.7,6.9-10,13.3-15.1,20c-0.2-0.2-0.4-0.3-0.6-0.5c1.6-3.6,3.4-7.1,4.6-10.9
			c3.3-10.1,2.3-20.3-1.2-30.1c-4.5-12.9-9.8-25.5-14.8-38.2c-3.5-8.8-6.2-17.8-7-27.2c-0.9-10.6,1.5-20.5,7.1-29.6
			C395.7,16,406.2,7.8,418,0z"/>
	</g>
	<rect y="1.4" class="st4" width="841.9" height="841.9"/>
</g>
<g id="Capa_1_00000146491240154264184430000014110204548430105503_">
	<path class="st5" d="M369.7,277.5c0,0-8.8-3.8-9.6,6.6c-0.8,10.4,2.7,20.7,13.6,23.2L369.7,277.5z"/>
	<path class="st5" d="M474.6,278.7c0,0,6.6,9.5,0.2,25.3c-6.4,15.8-23,11.4-23,11.4s7.9-6.6,10.8-12c2.9-5.3,10.8-25.2,10.8-25.2
		L474.6,278.7z"/>
	<path class="st6" d="M459,316c0,0,13.2-3.2,15.8-12c0,0,9.8-4.1,21.2,0.4c0,0-16.2,1.1-25.1,8c0,0,17.8,3.6,21.2,12.7
		c0,0-14.1-8.6-22.1-7.1c0,0,18.2,15.6,4.6,31.7c0,0,12.2-15.3-6-28.8c0,0,14.6,13.2-5.6,28.3c-20.2,15.1-27.2,9.6-27.2,9.6L436,337
		L459,316z"/>
	<path class="st7" d="M395.5,336.9c0,0,0.6,7-2.5,10.9c-3.1,3.9,20.8,65.1,47.9,3.1c0,0-1.5-16.8-0.3-24.4
		C440.5,326.5,416.7,342.7,395.5,336.9z"/>
	<path class="st5" d="M371.3,225c0,0-11,37.4-5.4,56.2c0,0,7,10,6.5,23.3c0,0,2,19.1,27.2,36.7c0,0,13.7,11.4,24.7,6.7
		c17.8-7.5,29.2-19.3,33.2-28.5c4-9.3,15.6-20.4,17.1-54.4c1.5-34-45.2-63-45.2-63L371.3,225z"/>
	<path class="st6" d="M407.2,198.3c0,0,5,20.1-2.1,28.7c-7.2,8.6-16.5,3.1-28.1,22.6s-8.2,29.3-8.3,32.8s1.3,9.5,2.9,11.1
		c0,0-2-2.1-4.5-6.3c0,0,2,2.1,0.7,7.8c0,0,0.1-5.8-1.4-12c0,0-1.4,2.2,0,7.1c0,0-3.9-9.7-3.1-13.4c0,0-9.1-32.4,4.1-57.3
		C380.6,194.5,395.5,196.8,407.2,198.3z"/>
	<path class="st6" d="M409.7,196.5c0,0,28-15.4,57,22.5c0,0,19.7,24.2,6.8,59.3c0,0-1-0.2-3,0.4c0,0-1.8,15.8-9.3,26.6
		c0,0,6.6-10.6,7-21.2c0,0-2.6,16-8.5,21.9c0,0,0.7-6.1,4.6-14s4.8-17.4,4.8-17.4s1.5,7.5-4.5-17.5c0,0-46.1-18.8-54.3-30.1
		C410.2,227,393.9,205.9,409.7,196.5z"/>
	<path class="st8" d="M354.6,843.4h31.7c1.2-17,3.2-45.3,3.8-50.7c0.8-7.8-2.3-26.4,0-37.3c2.3-10.9,6.2-28,3.9-38.1s7-89.4,7-89.4
		c13.2,63,40.4,108.9,40.4,108.9c-9.3,3.9,3.1,10.1,3.1,10.1c-8.5,21,7,45.1,7,45.1l30.6,51.4h41.6c0.1-0.1,0.1-0.1,0.1-0.1
		s-7-58.3-17.1-72.3s-10.9-37.3-10.9-37.3c8.5-4.7,0-7.8,0-7.8s-1.6-10.1-6.2-84.8s-25.7-112-25.7-112c0-11.7,0-17.9,0-17.9
		c-39.7,13.2-122.1-10.1-122.1-10.1c-1.6,17.9-15.5,31.8-15.5,31.8c-32.7,42-19.4,100.3-17.1,123.7c2.3,23.3,23.3,85.5,23.3,85.5
		c-9.2,10.4-0.5,10.3-0.5,10.3c-12.4,0-0.1,7.1-0.1,7.1c-6.1,24.3,5.1,63,12,83.3H354C354.3,842.9,354.5,843.2,354.6,843.4z"/>
	<path class="st9" d="M390.2,843.4c-1.7-2.6-3.7-3.2-3.7-3.2c-0.1,1.2-0.5,2.3-1.2,3.2H390.2z"/>
	<path class="st9" d="M523.5,843.4h12.1c-1.2-2.9-2-5.5-1.9-7.5c0.5-8.3-11.6-5-11.6-5l1.7,12.4
		C523.7,843.3,523.6,843.4,523.5,843.4z"/>
	<path class="st9" d="M482.5,843.4c-1.3-1.3-1.9-2.3-1.9-2.3c-4.5-4-6.6-2-6.6,2.3H482.5z"/>
	<path class="st6" d="M462.6,261.2c0,0-18.3-7.7-25.1-1.9c-6.8,5.8-7.7,5.9-6.8,8.9c0.9,2.9,17.3-5.5,24.1-4.3
		S467.8,263,462.6,261.2z"/>
	<path class="st6" d="M378.7,261.6c0,0-9,0.1-1.4,1.9c7.6,1.8,16,6.2,19.5,8.4s9.2,3.2,7.6-0.8s-2.7-5.2-5.6-6.8
		S378.7,261.6,378.7,261.6z"/>
	<path class="st10" d="M405.8,325.2c0,0,4.4,4.5,8.7,6.9s11.1-0.3,14.3-3.2s7-10.3,8.8-12c0,0-9.5,9-16.1,8.6s-16.6-1.2-16.6-1.2
		L405.8,325.2z"/>
	<path class="st11" d="M404.9,324.4c0,0,5.2-0.1,9-1.8c4.2-1.9,9.2-1.1,12.3-1.1c3.9-0.1,9.4-2.8,11.4-4.4c0,0-11.4,12-21,10
		S404.9,324.4,404.9,324.4z"/>
	<path class="st12" d="M433.6,289.2c0,0,11,4.2,20.4-1.5c10.4-6.3,4.2-14.8,4.2-14.8S434.9,268.6,433.6,289.2z"/>
	
		<ellipse transform="matrix(0.9986 -5.329886e-02 5.329886e-02 0.9986 -14.302 24.1629)" class="st13" cx="445.9" cy="280.2" rx="6" ry="6.9"/>
	<path class="st14" d="M450.2,278.7c0.6,2.4-0.7,4.9-2.8,5.5c-2.1,0.6-4.2-0.9-4.8-3.3s0.8-2.8,2.5-4.1
		C447.1,275.1,449.7,276.3,450.2,278.7z"/>
	<ellipse transform="matrix(0.9879 -0.155 0.155 0.9879 -37.3892 73.1108)" class="st15" cx="450.1" cy="276.3" rx="2.2" ry="1"/>
	<path class="st15" d="M447.1,278.4c0,0,0-0.3-0.4-0.3c-0.4,0-0.3,0.6-0.1,0.8s0.9,0.4,1.1,0.2s0.5-0.3,0.1-0.5
		C447.4,278.6,447.3,278.6,447.1,278.4z"/>
	<path d="M444.9,290.6c0.8-0.1,1.7-0.2,2.4-0.3c0.8-0.1,1.4-0.2,2.2-0.5c0.8-0.2,1.3-0.4,2-0.8c0.8-0.3,1.3-0.5,1.9-0.9
		c0.6-0.3,1-0.6,1.4-0.9c0.7-0.6,1.5-1.4,2.2-2.4c1.2-1.5,2.5-3.7,3-6.3c0,0,0.8,5.1-5.3,9.7C454.7,288.3,451,290.9,444.9,290.6z"/>
	<path d="M459.3,272.3c-0.1,0-0.2,0-0.2,0.1c0.6-0.5,1.4-1.2,2-2.4c0,0-2.2,0.7-4,0.8c-1.8,0-23.4-0.6-23.5,18.5c0,0,1-8.9,6.1-12.2
		c5.1-3.3,13.7-5.2,18.5-4.1c0.1,0.1,0.2,0.2,0.2,0.3c0.2,0.3,0.4,0.7,0.5,0.9c0.2-0.1,1.5-1.2,1.8-2.6
		C460.4,271.8,459.9,272.1,459.3,272.3z"/>
	<path class="st12" d="M403.3,287.7c0,0-10.6,4-19.6-1.6c-10-6.2-4-14.3-4-14.3S402.3,267.9,403.3,287.7z"/>
	
		<ellipse transform="matrix(6.349885e-02 -0.998 0.998 6.349885e-02 88.3814 651.9705)" class="st13" cx="391.6" cy="278.9" rx="6.7" ry="5.8"/>
	<path class="st14" d="M388.2,277.6c-0.5,2.1,0.6,4.3,2.4,4.9s3.8-0.7,4.3-2.9c0.5-2.1-0.7-2.5-2.1-3.7
		C390.9,274.4,388.7,275.4,388.2,277.6z"/>
	<ellipse transform="matrix(0.165 -0.9863 0.9863 0.165 52.2295 611.8859)" class="st15" cx="387.5" cy="275.1" rx="0.9" ry="2.1"/>
	<path class="st15" d="M390.4,277.2c0,0,0-0.2,0.4-0.2c0.4,0,0.3,0.5,0.1,0.7c-0.2,0.2-0.8,0.3-1.1,0.2c-0.2-0.1-0.5-0.3-0.1-0.5
		C390.1,277.3,390.2,277.4,390.4,277.2z"/>
	<path d="M392.4,288.9c-0.8-0.1-1.7-0.2-2.3-0.3c-0.7-0.1-1.3-0.2-2.1-0.5c-0.7-0.2-1.2-0.4-1.9-0.7c-0.7-0.3-1.2-0.5-1.8-0.9
		c-0.5-0.3-1-0.6-1.3-0.9c-0.7-0.6-1.4-1.4-2.1-2.3c-1.1-1.5-2.4-3.6-2.8-6.1c0,0-0.8,4.9,5,9.4
		C382.9,286.6,386.5,289.1,392.4,288.9z"/>
	<path d="M378.7,271.1c0.1,0,0.1,0,0.2,0.1c-0.6-0.4-1.3-1.2-1.9-2.3c0,0,2.1,0.7,3.9,0.8c1.7,0,22.5-0.3,22.5,18
		c0,0-0.8-8.6-5.7-11.8c-4.9-3.2-13.1-5.1-17.8-4.1c-0.1,0.1-0.2,0.2-0.2,0.3c-0.2,0.3-0.4,0.7-0.5,0.9c-0.2-0.1-1.4-1.1-1.7-2.5
		C377.7,270.6,378.1,270.9,378.7,271.1z"/>
	<path class="st16" d="M438.7,269.3c0,0-4.4,3.3-5.7,15.5C433,284.8,434.9,276.4,438.7,269.3z"/>
	<path class="st16" d="M401.5,274.6c0,0,2.7,2.2,1.6,4.7C403.1,279.3,402.6,275.5,401.5,274.6z"/>
	<path class="st16" d="M452.4,264.7c0,0,3.2,2.1,4,4.4C456.4,269.1,456,266,452.4,264.7z"/>
	<path class="st16" d="M408.5,304.8c0,0-1.8,3.5,1.8,5.2C410.2,310.1,407.5,307.2,408.5,304.8z"/>
	<path class="st16" d="M420.7,311.8c0,0,1.6-2.3,4.6-2.2c0,0-0.6,0.3-1.1,0.6C424.2,310.3,422.5,311.6,420.7,311.8z"/>
	<path class="st16" d="M415.5,312.6c0,0,2.9,1.2,4.2,0.6c1.4-0.6,1.5-1,1.5-1s-0.2,1.3-2,1.5C419.2,313.8,417.2,314,415.5,312.6z"/>
	<path class="st16" d="M410.7,309.5c0,0,1.2-0.6,2.5,0.7c0,0,1.1,1,1.6,1.2l0.4,0.8c0,0-0.4-0.2-0.8-0.4c0,0-1.6-0.8-2.3-1.6
		S410.7,309.5,410.7,309.5z"/>
	<path class="st16" d="M425.7,310.9c0,0,2.1-1.2,2.3-1.9c0.2-0.8-0.1-2.5-0.1-2.5s0.4,1.7,0.6,2.5
		C428.5,309,428.7,309.4,425.7,310.9z"/>
	<path class="st16" d="M409.5,283.2c0,0,4.1,5.5,2.8,11s-2.5,8-2.5,8s3.7-6.4,3.3-12.2C413.2,289.9,413.6,288.8,409.5,283.2z"/>
	<g class="st17">
		
			<image style="overflow:visible;enable-background:new    ;" width="670" height="396" xlink:href="D0EFE26FA6D97621.png"  transform="matrix(0.24 0 0 0.24 337.7578 254.827)">
		</image>
	</g>
	<path class="st5" d="M511,252.2c0,0,21.5,18.5,32.1,26.1c0,0,6.4-37.4,10.2-46.4c3.8-9.1,7.5-10.9,7.5-10.9l-37-1.5
		C523.8,219.4,517,244.3,511,252.2z"/>
	<path class="st5" d="M264.5,205.5c0,0,29.4,4.3,36.6,5c0,0,3,16,5.6,23.6s6.8,24.9,6.8,24.9l-37,17.8
		C276.5,276.8,269.8,226.8,264.5,205.5z"/>
	<path class="st18" d="M245.2,205.7c0,0,47.4,12,148,10.4c0,0,27.1-2.3,180.4,8.5l-3.5-117.9l7.5-34.4V44c0,0-20.7-0.8-108.8-4.2
		c0,0-90.4-17.7-160.1-7.3c-2.6,0.4-48-2.7-58.9-5l3.8,33.4c0,0-4.3,72.6-2.2,79.9C251.5,140.7,251,143.4,245.2,205.7z"/>
	<path class="st5" d="M243.8,66c0,0-2.1-5,5.6-13.4s9.7-11.4,9.7-11.4s5.9-5.5,4.5,2c0,0-9.8,13.1-9.9,18.9c0,0,8.6-4.4,10.1,26.2
		c0,0,0.1,3.8-4.7,0c0,0,3.5,7.6,2.8,9.3c0,0-0.4,2.9-6.6,1.8c0,0-2.4,47.7-3.8,52.9c0,0-6.6-34.9-9.7-41.9
		c-3.1-7-20.9-28.8-13.2-34C236.2,71.2,243.8,66,243.8,66z"/>
	<path class="st5" d="M582.4,55.5c0,0-3.5-8.7-4.5,0s0,21.5,0,21.5s-5.2-3.5-11.1,5.5c-5.9,9-4.5,14-4.5,14s0.7,2.6,3.1,3.5
		c0,0-2.4,7.9,0.7,11.9c0,0,0.3,2.3,4.2,2l2,48.6c0,0,5.6-26.8,10.2-35.2c4.5-8.4,5.2-11.9,8-13.4c2.8-1.4,4.9-4.7,4.5-8.7
		c-0.3-4.1,0-9-4.2-13.1c-4.2-4.1-5.9-13.4-6.3-18.3C584.1,68.9,582.4,55.5,582.4,55.5z"/>
	<path class="st19" d="M316.9,269.2c0,0,3.8-9.1-3.4-9.4c-7.2-0.4-34.4,14-40.8,19.3c-6.4,5.3-44.6,55.5-15.1,55.1
		c0,0,11.3-3.4,13.2,8.7c1.9,12.1,6,5.7,8.7,9.4c2.6,3.8-0.4,10.2,6.8,14.7c14.2,12.6,32.2,32.6,41,61.1c11.7,37.9-2.6,60,9,77.9
		c11,16.8,43.9,28.3,140.5,5.3c0,0-6.6-7.9,0.2-17s13.6-56.6,25.7-72.5c12.1-15.9,31.7-32.5,24.2-60.4c0,0,7.5,0.8,5.3-7.5
		c0,0,31,8.3,24.2-2.3c0,0,9.8-4.5,9.1-17.4s6.9-30.2,0-36.2c-6.8-6-49.9-40.8-54.4-44.9s-6,9.4-14.4,26
		c-8.3,16.6-18.1,30.2-19.6,46.8c0,0-10.6,1.5-7.5,13.6c0,0-15.9,7.5-15.9,16.6c0,0,6.5-2.7-11.6-4.2c0,0-32.5,30-49-4l-13.3,6.6
		l-11.1,0.5c0,0-2.3-7.1-15.3-17.5c0,0,1.3-1.7-2.6-14.5c-4.5-14.7-11.1-13.6-22.5-30.2C324.4,284.8,320.7,277,316.9,269.2z"/>
	<text transform="matrix(0.9992 4.020000e-02 -4.020000e-02 0.9992 304.5025 73.4378)" class="st20 st21 st22">De camino a casa </text>
	<text transform="matrix(0.9992 4.020000e-02 -4.020000e-02 0.9992 351.8095 109.7992)" class="st20 st21 st22">quiero ser </text>
	<text transform="matrix(0.9992 4.020000e-02 -4.020000e-02 0.9992 367.7156 158.4784)" class="st20 st21 st23">LIBRE</text>
	<text transform="matrix(0.9992 4.020000e-02 -4.020000e-02 0.9992 465.0777 162.3954)" class="st20 st21 st24"> </text>
	<text transform="matrix(0.9992 4.020000e-02 -4.020000e-02 0.9992 347.0669 192.1057)" class="st20 st21 st22">no valiente</text>
	<text transform="matrix(1 0 0 1 271.1419 178.7709)" class="st20 st21 st25">#8M</text>
	<path class="st26" d="M391.8,348.4c0,0-0.5-6.8,3.5-6.5c4,0.2,3.1,8.4,20.2,11.6c17.1,3.2,24.9-10.4,24.9-10.4s2.8,3.1,1.7,8.8
		c-1.2,5.7-9.4,14-21.3,14.5C408.8,366.8,391.4,357.1,391.8,348.4z"/>
	<path class="st26" d="M316.9,269.2c0,0-33,19.4-46,35.5c0,0-7.2,9.4,3.6,3.6C285.3,302.6,290.5,286.6,316.9,269.2z"/>
	<path class="st26" d="M353.3,337.4c0,0-27,14.2-25.9,25.7C328.5,374.6,353.3,337.4,353.3,337.4z"/>
	<path class="st26" d="M368.6,354.9c0,0-10.6,2.8-1.8,8.5C375.7,369.2,368.6,354.9,368.6,354.9z"/>
	<path class="st26" d="M379.7,354.4c0,0,4.2,9,9.8,11.9C395.1,369.2,390.6,360.9,379.7,354.4z"/>
	<path class="st26" d="M295.9,354.4c0,0,36.6-10.7,39.3-27.1C335.2,327.3,313,344,295.9,354.4z"/>
	<path class="st26" d="M469.4,339.4c0,0,7.2,16.4,26.9,20.4C516.1,363.8,486.5,358.6,469.4,339.4z"/>
	<path class="st26" d="M453.9,353.9c0,0,6.3,8.9,15.6,15.1c9.9,6.6,16.7,8.7,17.6,6.7c1-2.1-5.5-4.2-16-9.8
		C461.5,360.9,453.9,353.9,453.9,353.9z"/>
	<path class="st26" d="M532.1,353.8c0,0-33.2-23.2-39.9-28.7s2.3,7.9,2.3,7.9S515.8,343.8,532.1,353.8z"/>
	<path class="st26" d="M556.3,351.5c0,0-30.7-8.2-38-16.9c-7.3-8.6,11.8,4.1,11.8,4.1S554.9,352.4,556.3,351.5z"/>
</g>
<g id="CHICA_2">
	
		<linearGradient id="SVGID_1_" gradientUnits="userSpaceOnUse" x1="454.0104" y1="135.7711" x2="460.6463" y2="-53.0957" gradientTransform="matrix(1 0 0 -1 0 841.2753)">
		<stop  offset="0.2764" style="stop-color:#D17E8C"/>
		<stop  offset="0.4776" style="stop-color:#D79097"/>
		<stop  offset="0.7696" style="stop-color:#DFA6A4"/>
	</linearGradient>
	<path class="st27" d="M459.1,843.4c1.4-7.8,2.3-12.9,2.3-12.9c0.6,4.4,1.3,8.7,2.1,12.9h79.5c-0.5-0.2-0.5-1,0.1-1c0,0,0,0,0.1,0
		c-0.8-66.2-17.2-100.3-17.2-100.3c0.7-10.9-2.3-31.7-2.3-31.7c-37.8,10-98.5-15.1-98.5-15.1c-3,11.8-14,40.3-14,40.3
		c-23.6,45.8-35.1,84.3-36.9,107.7H459.1z"/>
	<path class="st28" d="M1186.6,624.5c0,0,4,17.3-3.2,27.7c-7.2,10.4-13.6,0.4-17.3,5.4c-3.7,5-8.8-1.2-16.3,3.2
		c0,0-0.4-8.4-2.8-13.3c0,0,0.1,3.5-1.4,8.2c-1.6,4.7-0.2,7.4-5.5,9.2s-9-0.4-10.1,0.5c-1.1,0.8-5.8-51.7-5.8-51.7s4.9-29.9,21-17.5
		C1161.3,608.6,1186.6,624.5,1186.6,624.5z"/>
	<line class="st29" x1="552.4" y1="545.8" x2="502.9" y2="513.5"/>
	<path class="st30" d="M431.8,568.6c54.7-27.8,71.1-55.1,71.1-55.1"/>
	
		<ellipse transform="matrix(1.579961e-02 -0.9999 0.9999 1.579961e-02 5.8311 979.5046)" class="st15" cx="500.5" cy="486.8" rx="1.3" ry="3"/>
	<g>
		
			<image style="overflow:visible;enable-background:new    ;" width="334" height="318" xlink:href="D0EFE26FA6D97623.png"  transform="matrix(0.2414 0 0 0.2414 447.1978 456.5585)">
		</image>
	</g>
	<path class="st31" d="M502.2,509c0.1,0,0.2-0.1,0.2-0.2c0-0.2-0.2-0.4-0.4-0.4c-0.2,0-0.3,0.1-0.2,0.3
		C501.9,508.8,502,509,502.2,509z"/>
	<path class="st31" d="M499.1,504.3c0,0,0.1,0,0.1,0c0.3,0,0.5-0.2,0.3-0.4c-0.1-0.3-0.5-0.4-0.7-0.3c-0.2,0.1-0.3,0.2-0.3,0.4
		C498.7,504.1,498.8,504.2,499.1,504.3z"/>
	<path class="st31" d="M491.8,501.4c0-0.3-0.1-0.5-0.3-0.5c-0.2,0-0.6,0.2-0.7,0.4c0,0.3,0.2,0.5,0.5,0.6
		C491.6,501.9,491.8,501.7,491.8,501.4z"/>
	<path class="st31" d="M494.8,505.1c-0.2,0-0.4,0.1-0.4,0.3c0,0.2,0.2,0.5,0.5,0.6c0.2,0,0.3,0,0.4-0.3
		C495.2,505.5,495,505.2,494.8,505.1z"/>
	<path class="st31" d="M496.5,508.6c0,0.2,0.1,0.5,0.3,0.5c0.2,0,0.5-0.2,0.5-0.4c0-0.2-0.1-0.5-0.3-0.5
		C496.7,508.2,496.5,508.4,496.5,508.6z"/>
	<path class="st31" d="M495,501c-0.2,0-0.3,0.1-0.4,0.3c0,0.2,0.1,0.4,0.4,0.5c0.2,0,0.3-0.1,0.4-0.3
		C495.5,501.3,495.3,501.1,495,501z"/>
	<path class="st31" d="M491.2,506.3c0.1,0,0.2-0.1,0.2-0.2c0-0.2-0.2-0.4-0.3-0.4c-0.2,0-0.3,0.1-0.2,0.3
		C490.9,506.2,491,506.3,491.2,506.3z"/>
	<path class="st32" d="M1036.5,462.6"/>
	<path class="st33" d="M474.6,547.1c0,0,1.4,15.8-17.1,15.3c-4.5-0.1-13.4,9.7-14.1,18.7c-1.3,15.3,54.5,114.5,55.8,106
		c15.1-97.5,65.5-75.2,22.4-111c-4.1-3.4,0.8-9.4,1-9.7c-6.3,4.2-11.7,1.5-14.3-0.1c-7.1-4.4-32.9-41.4-32.9-41.4L474.6,547.1z"/>
	<path class="st31" d="M520.9,566.1l-48.3-46.8l1.3,14.9c0,0,1.6,14.5,22,28c0,0,16.4,11.9,26.3,4.6c13.8-10.1,0-1.2,0-1.2
		L520.9,566.1z"/>
	<path class="st33" d="M524.6,565.7c-15.4,7.2-42.9-23.3-46.3-31.4c-3.4-8.1-5.1-8.5-5.2-25.2s10.3-56.1,36.8-66.3
		c0,0,11-5.5,18.6-0.5s12.4,0.5,17.8,2.7c5.4,2.3,24.5,15.6,14.1,46.2c0,0-0.5,9,0.3,29.1C562,549.7,540.1,558.5,524.6,565.7"/>
	<path class="st31" d="M558.6,488.5c0,0-5.3-6.6-12.3-2.2c-6.5,4.1-6.7,7.4-6.7,7.4S543.2,485,558.6,488.5z"/>
	<path class="st31" d="M496.3,480.4c0,0,5.4-4.2,12.7-0.4c7.3,3.9,7.5,10.8,7.5,10.8S514.1,480.8,496.3,480.4z"/>
	<path class="st12" d="M517,496.5c0,0-10.9,6.3-19,1.1c-9.1-5.8-2.3-15.9-2.3-15.9S517.2,478.5,517,496.5z"/>
	<path d="M506.3,499.6c-0.7,0-1.4-0.1-1.9-0.2c-0.7-0.1-1.2-0.2-2-0.4c-0.7-0.2-1.1-0.4-1.8-0.6c-0.7-0.3-1.1-0.5-1.7-0.8
		c-0.5-0.3-0.9-0.6-1.2-0.8c-0.6-0.5-1.3-1.2-2-2.1c-1-1.3-2.1-3.2-2.5-5.5c0,0-0.9,4.5,4.4,8.5
		C497.6,497.7,500.7,499.9,506.3,499.6z"/>
	<path class="st12" d="M538.4,496.9c0,0,7.4,7.8,14.9,5.2c5.8-2,5.4-12.1,5.4-12.1S542.3,482.5,538.4,496.9z"/>
	<path d="M545.8,501.8c0.6,0.1,1.6,0.3,2,0.4c0.2,0,1,0.1,1.7,0.1c2.1,0,3.7-0.6,4-0.8c0.6-0.2,1.4-0.6,2.2-1.4
		c0.1-0.1,0.3-0.3,0.7-0.8c0.6-0.8,1-1.6,1.6-2.9c0,0,0,3.4-4.3,5.9C553.6,502.3,549.6,503.5,545.8,501.8z"/>
	<path class="st34" d="M558.8,490c0,0,0.1,0.4,0,1.8c0,0-13.6-5.1-20.3,5.2c0,0,1.3-4.8,3.2-5.9C541.6,491,549.9,484,558.8,490z"/>
	<path class="st35" d="M537,516.1c-1.3-0.1-3.3-0.2-5.5,0.6c-1.8,0.6-2.1,1.2-3.5,1.3c-2.1,0.2-3.2-1.2-5.7-2.3
		c-1.4-0.6-3.5-1.2-6.4-1.1c0,0.3-0.1,0.8,0.1,1.4c0.3,1,1.1,2.5,3.2,4.8c3.7,4,6,5.6,8.1,5.4c0.8-0.1,1.4-0.4,2.4-1
		C531.4,523.9,534.5,521.4,537,516.1z"/>
	<ellipse transform="matrix(0.1126 -0.9936 0.9936 0.1126 -4.0123 983.4838)" class="st36" cx="548.6" cy="494" rx="6.1" ry="4.7"/>
	<path class="st37" d="M545.9,494c-0.1,2.1,1.1,3.9,2.7,4s3-1.5,3.2-3.6s-0.9-2.1-2.3-2.9C547.8,490.5,546.1,491.9,545.9,494z"/>
	<path d="M538.4,496.9c0,0,2-6.2,6.2-7.5c4.2-1.4,10.8-1.1,14.2,0.6c0,0,1.4-0.2,2.6-1.5c0,0-1.7,0.1-3-0.2
		C557,487.9,541.2,483.4,538.4,496.9z"/>
	<path class="st34" d="M517,496.5c0,0-5-13-22.9-11.6c0,0,0.5-1.9,1.6-3.2c0,0,15-3.3,20.2,8.4C515.9,490.1,517,492.6,517,496.5z"/>
	
		<ellipse transform="matrix(6.410278e-02 -0.9979 0.9979 6.410278e-02 -15.6966 961.3551)" class="st36" cx="504.7" cy="489" rx="7.6" ry="5.8"/>
	<path d="M517,496.5c0,0-0.2-7.8-4.7-10.8s-12.2-4.9-16.6-4c0,0-1.5-0.7-2.5-2.6c0,0,2,0.7,3.6,0.8
		C498.5,479.9,518.2,479.9,517,496.5z"/>
	<path class="st37" d="M500.9,488.8c-0.2,2.6,1.3,4.9,3.4,5s3.8-1.9,4-4.5s-1.1-2.7-2.9-3.7C503.3,484.4,501.1,486.2,500.9,488.8z"
		/>
	<g class="st38">
		
			<image style="overflow:visible;enable-background:new    ;" width="599" height="382" xlink:href="D0EFE26FA6D97626.png"  transform="matrix(0.2404 0 0 0.2404 452.4778 461.7505)">
		</image>
	</g>
	<path class="st31" d="M537.6,513.1c0,0,1.6,4.4-2.3,5.8C535.2,518.9,538.4,515.9,537.6,513.1z"/>
	<path class="st31" d="M523.9,519.4c0,0-1.5-2.9-4.7-3.2c0,0,0.6,0.4,1.1,0.9C520.3,517.1,522.1,518.9,523.9,519.4z"/>
	<path class="st31" d="M529.4,521.1c0,0-3.2,1-4.6,0.1c-1.4-0.9-1.5-1.4-1.5-1.4s0.1,1.5,2,2.1C525.3,521.9,527.5,522.4,529.4,521.1
		z"/>
	<path class="st31" d="M534.8,518.1c0,0-1.2-0.9-2.8,0.4c0,0-1.2,1-1.8,1.2l-0.5,0.8c0,0,0.4-0.2,0.9-0.3c0,0,1.7-0.7,2.6-1.5
		S534.8,518.1,534.8,518.1z"/>
	<path class="st31" d="M518.7,517.6c0,0-2.1-1.7-2.3-2.6c-0.1-0.9,0.3-2.9,0.3-2.9s-0.5,1.9-0.9,2.9
		C515.8,515,515.5,515.4,518.7,517.6z"/>
	<path class="st31" d="M538.2,487.7c0,0-4.9,5.8-3.9,12.3s2,9.6,2,9.6s-3.4-8-2.5-14.7C533.7,495,533.4,493.7,538.2,487.7z"/>
	<path class="st35" d="M529,525.3c-0.5,3-1,6.1-0.8,7.9c0.1,0.7-0.6,1.3-1.5,1.5c-0.3,0.1-0.6,0.1-1,0.2c-2.3,0.4-3.1-2-0.9-2.6
		c0,0,0.1,0,0.1,0c1-0.3,1.5-1.1,1.2-1.8l-2-4.5c-0.4-0.9,0.5-1.8,1.7-1.9l1.2-0.1C528.3,523.8,529.1,524.5,529,525.3z"/>
	<path class="st39" d="M524.9,478c0,0-0.5,3.2-6.1,2.6c0,0-0.5,0-11.5-10.1c0,0-4.2-2.8-14.5,0.1c0,0,5.3-5.1,14.4-3.4
		C516.3,468.8,524.9,478,524.9,478z"/>
	<path class="st39" d="M540.6,479c0,0-0.8,3.2,3.9,4.5c0,0,0.3,0.2,11-4.7c1.3-0.6,2.7-0.8,4-0.4c0.9,0.2,2,0.5,3.6,1
		c0,0,0.6-1,0.8-2.8c-1.4-2-0.5-1.4-5.5-1.6C550.5,474.7,540.6,479,540.6,479z"/>
	<path class="st15" d="M548.5,494.3c0,0,0-0.3,0.6-0.4c0.6-0.1,0.5,0.7,0.2,1c-0.3,0.3-1.2,0.6-1.5,0.5c-0.4-0.1-0.7-0.4-0.2-0.6
		C548.1,494.6,548.3,494.6,548.5,494.3z"/>
	<path class="st15" d="M503.9,488.6c0,0,0-0.3,0.6-0.4c0.6-0.1,0.5,0.7,0.2,1c-0.3,0.3-1.2,0.6-1.5,0.5c-0.4-0.1-0.7-0.4-0.2-0.6
		C503.5,488.8,503.7,488.9,503.9,488.6z"/>
	<path class="st40" d="M512.6,540c0,0,4.6,1.3,5.2,2.5s2.1,2.3-0.1,1.3c-2.2-1-6.5-4.2-5.8-4C512.6,540,512.6,540,512.6,540z"/>
	<path class="st41" d="M450.4,493.9c-4.6-4.3-11-6.7-11-6.7s-1.1,9.7-13.8,30.9c-1.4,2.3-6.3,5.6-7.2,8c0.8,1,2,2.5,3.4,4
		c3.8-1.3,8.2-3.5,9.3-6.3c0,0-2.5,6.1-7.2,8.6c0.8,0.8,1.6,1.7,2.5,2.5l5.5-4.2l-5,4.7c4.1,4,9,8.3,13.5,11.1
		c3.1,2,6.2,3.5,9.2,4.8c1.2-1.6,3.3-4.7,4.6-8c0,0-2,5.2-3.7,8.4c0.7,0.3,1.4,0.5,2.1,0.8c1-1.7,2.5-4.6,3.1-6l-2.4,6.3
		c5.4,1.9,10,2.8,13.3,3.2c1.6-2.1,3.3-4.7,4.8-7.6c1.4-2.8,2.6-5.9,3.4-9.3c0.2-1.1,0.5-2.3,0.6-3.5c0.3-3,0.3-6.1-0.3-9.3
		s-0.8-6.6-0.7-9.9c0-1.3,0.1-2.6,0.2-4c0-0.7,0.1-1.3,0.2-2c0.2-2,0.5-3.9,0.8-5.7c0.1-0.6,0.2-1.2,0.4-1.9
		c0.2-1.2,0.5-2.4,0.8-3.6c0.3-1.2,0.6-2.3,0.9-3.4c0.6-2.2,1.2-4.2,1.8-6c0.3-0.9,0.6-1.7,0.9-2.5c0.3-0.8,0.5-1.5,0.8-2.2
		c1-2.6,1.7-4.1,1.7-4.1S455.1,498.2,450.4,493.9z"/>
	<path class="st31" d="M549.5,513.4c-0.1,0-0.2,0-0.3-0.1c0-0.2,0.1-0.4,0.2-0.5c0.2-0.1,0.3,0,0.3,0.2
		C549.7,513.1,549.6,513.3,549.5,513.4z"/>
	<path class="st31" d="M550.2,509.3c0,0-0.1,0-0.1,0c-0.3,0.1-0.5,0-0.4-0.3c0.1-0.3,0.4-0.5,0.6-0.5c0.2,0,0.3,0.1,0.3,0.3
		C550.6,509,550.4,509.2,550.2,509.3z"/>
	<path class="st31" d="M556.6,504.7c-0.1-0.2,0-0.5,0.2-0.6c0.2-0.1,0.6,0.1,0.7,0.3c0.1,0.3,0,0.6-0.4,0.7
		C557,505.2,556.7,505,556.6,504.7z"/>
	<path class="st31" d="M554.6,509.1c0.2-0.1,0.4,0,0.5,0.2c0.1,0.2-0.1,0.6-0.3,0.6c-0.2,0-0.3,0-0.4-0.2
		C554.2,509.5,554.4,509.1,554.6,509.1z"/>
	<path class="st31" d="M553.8,512.9c0.1,0.2,0,0.5-0.2,0.6c-0.2,0.1-0.5-0.1-0.6-0.2c-0.1-0.2,0-0.5,0.2-0.6
		S553.7,512.7,553.8,512.9z"/>
	<path class="st31" d="M558.4,509.4c-0.1,0-0.2,0-0.3-0.1c0-0.2,0.1-0.5,0.2-0.5c0.2-0.1,0.3,0,0.3,0.2
		C558.6,509.1,558.5,509.3,558.4,509.4z"/>
	<path d="M506.3,499.6c-0.7,0-1.4-0.1-1.9-0.2c-0.7-0.1-1.2-0.2-2-0.4c-0.7-0.2-1.1-0.4-1.8-0.6c-0.7-0.3-1.1-0.5-1.7-0.8
		c-0.5-0.3-0.9-0.6-1.2-0.8c-0.6-0.5-1.3-1.2-2-2.1c-1-1.3-2.1-3.2-2.5-5.5c0,0-0.9,4.5,4.4,8.5
		C497.6,497.7,500.7,499.9,506.3,499.6z"/>
	<path class="st42" d="M533,444.3c0,0-21.2-36-46.4-10.8c-25.2,25.2-19.1,35-39,58.1c0,0-6.4-0.7-8.1-4.4c0,0,20.2,40.7,37.3,13.1
		c17.1-27.6-0.9-31.1,21.8-47.9C517.6,438.5,533,444.3,533,444.3z"/>
	<path class="st41" d="M597.9,540.2c0,0-5.4-1.7-11.5-7.3c-9.6-8.9-21.5-25.6-24.3-47.4c0,0-1.6,2.7-3.4,14.6c0,0,0.6,9.8-0.3,15.6
		c-1.1,6.7-0.9,6-9.3,23.2c-6.1,12.6-17.7,23.3-17.7,23.3"/>
	<path class="st39" d="M532.9,444.3c-24.2-17.6-40.6-5.7-47.4,3.7c-6.8,9.4-20.9,50.6-30.8,50.3s-15.3-11-15.3-11s-1.6-2.7,0,0
		c1.9,3.2,4.2,5.2,6.4,6.3c4.1,2.1,9.1,1,12.1-2.5c10.5-12.2,14.5-25.6,17.5-32.5c2.3-5.2,8.9-14.8,8.9-14.8
		C508.2,417.2,532.9,444.3,532.9,444.3"/>
	<path class="st42" d="M597.9,540.2c0,0-33.8-8.6-34.7-36.4c-0.9-27.8-7.9-43-7.9-43s-6.6-16-22.3-16.4c0,0,11.7-18.8,26.4-5.4
		c14.6,13.3,9.7,38.9,18.5,47.6c8.8,8.6,14.4,20.2,11.2,34.6C586.4,532.8,597.9,540.2,597.9,540.2"/>
	<path class="st39" d="M597.9,540.2c0,0-21.4-3.8-29.5-23.2c0,0-3.4-8.9-2.9-23.7c0.7-19.7-6.8-40.3-9.9-43.2
		c-3.1-2.9-5.9-6.8-22.7-5.8c0,0,21.9-7.7,27.6,3.5c5.7,11.2,2.7,18.2,9,36.7S569.3,530.6,597.9,540.2"/>
	<path class="st39" d="M533,444.3c0,0-13.2-9.6-36.8,6.7c0,0-11.1,5.1-14,21.7c-3,16.9-3.9,29-15.5,33.4c-5.4,2.1-12.7,2.9-27-18.4
		c0,0,8.4,13.8,18.2,16.8c9.8,3,15.1-1.8,20.4-19.4c3.3-10.8,2.1-18.5,7.6-26.5c3.5-5,13.1-12.9,20.9-15.8
		C525.1,436.3,530.8,443.6,533,444.3z"/>
	<path class="st39" d="M597.9,540.2c0,0-5-3.9-7.6-9.7c-1.4-3.1-1.7-6.6-0.7-9.8c1.7-5.5,3.6-19.4-11.7-34.2c0,0-3.7-3.7-5.7-14.6
		c-2-10.9-2.2-22.6-12.8-33c-10.5-10.3-20.4-4.5-26.3,5.4c0,0,12.2-12.6,25.2-3c0,0,7.1,5.2,12.7,33.1c0,0,1.2,7.3,5.9,16.2
		c4.7,8.9,8.1,14.8,7.2,23.3C583,522.4,588,534.9,597.9,540.2"/>
	<g>
		<path class="st43" d="M509,542.1c0,0,11.9-17.4,16.8-12.8c0,0,8.4-5.7,3.4,13.5c0,0,2.4,15.5-4.5,14
			C517.8,555.2,516.8,554.8,509,542.1z"/>
		<path class="st44" d="M510.4,542.8c0,0,10.6-12.7,15.9-10.1c0,0,6.2-1,1.1,10.7c0,0,1.2,10-2.1,9.6
			C522,552.5,521.4,554.7,510.4,542.8z"/>
		<path class="st45" d="M511.3,543.7c0,0,3.9-2.6,6.8,0.2c0,0,2.6-4.7,8.7,2.5l6.5-2.5l-2.3-7.2l-21.7-3.1c0,0-3,9.5-0.4,10"/>
		<path class="st46" d="M527.6,547c-6-7.2-9.5-3-9.5-3c-2.9-2.8-6.8-0.2-6.8-0.2c10.1,10.9,10.7,8.8,14,9.2
			C527.3,553.2,527.7,549.8,527.6,547L527.6,547z"/>
		<path class="st47" d="M526.4,532.7c-2.1-1-4.7,0.1-7.5,2.1c2,0.5,4.3,1.1,7.3,0.9c1.2-0.1,2.3-0.2,3.3-0.4
			C529.3,533.5,528.7,532.6,526.4,532.7z"/>
	</g>
	<path class="st48" d="M426.6,563.6c0,0,25.9-0.7,30.8-1.3c0,0,12.6,43.4,22.7,64.1c10.2,20.9,44.9-38.5,49.4-43.2
		c0,0,15.2-3,27,5.5c11.8,8.5,28.7,24.1,28.7,24.1s2.5-6.7,8.1-3.8c0,0,1.4,15.7,30.2,9c0,0,3.6,2.8,1.2,10c0,0,16.9,4.6,1.9,24
		c0,0,0.6,11.1-2.4,17.4c0,0,6.8,5,6.3,15.8c0,0,4.3,12.2,7.6,18.8s-8.9,44-13.9,47.7c-5,3.7-8,14-25,10.8
		c-17-3.2-42.1-29.8-43.1-35.2c-1-5.4-14.5-46.6-15.5-48.7c-1-2.1-3.2,35.3-5.8,38.5c-11.4,14.2-3.4,15.8-8.2,19.6
		c-11.6,9.2-19.5,9.2-52.6,5.4c-12.3-2.2-26.8-5.8-42.5-11.6c-11.8-4.4-7.8-1.7-16.7-6.4c-0.3-0.7,3.7-3.7-3.5-20.3
		c-1.1-2.5,3.4-54,2.9-56.8c-6.2-33.3-3-46.3-3-46.3L426.6,563.6z"/>
	<path class="st35" d="M593.2,607.3l2.3-15.1c0,0-4.9-1.2-0.3-16.9c0,0-3.3-11.9-0.4-16.7c0.2-0.4,0.5-0.8,0.6-1.2
		c1.9-4.4,0.5-8.7,7.1-10.3c0,0,1,0,6.5-3.5c5.5-3.5,5.2,3.5,5.2,3.5s7-1.8,12.2-3.6c5.2-1.8,6.1,8.4,6.1,8.4s5.9,7.3,5.3,11.2
		c0,0,7.1,5.1,6.7,11.1c0,0,3.5,5.2,0.9,11.1c-2.5,6-7.3,6.4-11.5,11.8c-4.2,5.4-11.4,10.5-11.4,10.5l0.6,10.4
		C623.4,618.1,595.6,629.7,593.2,607.3z"/>
	<path class="st41" d="M439.5,487.2c0,0,5.2,8.6,14,1.5c8.8-7.1,18.7-39.7,29-51.1c9.3-10.2,23.5-19.9,42.1-3.6
		c3.2,2.8,4.7,5.8,8.3,10.3c0,0,8.9-13.6,20.3-9.7c0,0-5.8-18.6-28.4-14.9c0,0-30.6-17.1-59.2,13.7
		C465.7,433.4,449.2,448.5,439.5,487.2z"/>
	<path class="st49" d="M605.1,550.6c-0.5-1.6-0.8-2.5-1.1-3.4c0.1-0.1,0.3-0.2,0.4-0.3c0.5,0.5,1,1.1,1.4,1.7c1.5,2.2,3,4.4,4.3,6.7
		c3.3,5.8,7.7,10.7,13.1,14.7c2.4,1.7,2.2,2.4-0.4,3.9c-7.2,4-7.5,4-12.3-2.5c-5.2-6.8-10.3-13.6-15.4-20.4c0.2-0.2,0.3-0.3,0.5-0.5
		c1.1,0.9,2.1,1.8,3.6,3.1c-0.5-1.7-0.8-2.8-1.2-4c0.2-0.1,0.4-0.2,0.5-0.4c1.1,0.9,2.2,1.8,3.8,3.1c-0.5-1.6-0.9-2.8-1.3-3.9
		c0.1-0.2,0.3-0.3,0.5-0.5C602.4,548.6,603.4,549.4,605.1,550.6z"/>
	<path class="st15" d="M627.2,566.1c-5.7-3.7-10.3-8.3-13.2-14.5C618.3,556.5,622.8,561.3,627.2,566.1z"/>
	<path class="st33" d="M298.8,842.9h26.8c-0.1-0.3-0.3-0.7-0.4-1c0,0-0.2-2.7,1.1-5.6c1.3-2.9,5.2-12.3,5.2-12.3s6-12.5,8.1-18.3
		c-1-1.2-5.2-3.4-6.2-4.6c-1.6-1.8-3.3,0.1-5-1.6c-1.7-1.6-0.9-1.9-2.5-3.6c-1.5-1.6-5.7-4.8-7.2-6.5c-2.1,6-5.4,16.8-6.7,20.5l0,0
		c0,0-7.9,13.7-9.1,15.7c-1.3,2-3,4.3-2.8,6.4C300.2,833.3,299.4,838.3,298.8,842.9z"/>
	<path class="st33" d="M391.2,589.2l-11.9,43c0,0-10.9,40.1-26.2,74c-2.5,5.6-10.5,12.9-14.3,21.3c-11.1,24.6-11.6,38.3-21.9,67.1
		c0.2,0.3,0.5,0.6,0.7,0.8c1.6,1.9,3.2,3.9,5,5.7c1.9,1.9,3.9,3.6,5.9,5.5c2.7,2.6,5.3,5.3,7.8,8.2c2.7-7.6,6.5-17.1,10.3-23.1
		c7.3-11.4,13.9-32.3,34.2-74c20.3-41.8,21.8-112.3,35.2-106.6c12.8,5.5,9.7,13.1,18.2,14.4c8.6,1.2,18.6,9.5,18.6,9.5
		s-21.9-60.4-22-66.3L391.2,589.2z"/>
	
		<linearGradient id="SVGID_00000051355158626109823660000003883220748602650009_" gradientUnits="userSpaceOnUse" x1="323.4042" y1="114.1763" x2="471.4511" y2="180.1293" gradientTransform="matrix(1 0 0 -1 0 841.2753)">
		<stop  offset="0.2764" style="stop-color:#A16543"/>
		<stop  offset="0.5384" style="stop-color:#B5704B"/>
		<stop  offset="0.7618" style="stop-color:#C27851"/>
	</linearGradient>
	<path style="fill:url(#SVGID_00000051355158626109823660000003883220748602650009_);" d="M450.7,581.9l-24-18.3
		c0,0-52.1,3.1-64.1,95.8s-61.3,138.3-61.3,138.3s-8.9,14.4,6.2,25.3c0,0-7.2,3.3-4.7,8c0,0,12,7.8,18.8,11.8h10.2
		c0-0.1,0.1-0.2,0.1-0.2c1.9-6.6-1-3.9-1-3.9s32.2-42.3,56.9-101c14.6-34.6,22-84.4,30.9-109.2c3.3-9.4,9.4,18.5,14.1,25.5
		c7.9,11.8,28.1,47.6,28.1,47.6L450.7,581.9z M307.5,823.1c0.1,0.1,0.2,0.1,0.3,0.2C307.6,823.2,307.5,823.2,307.5,823.1z
		 M308.3,823.7c0.3,0.2,0.6,0.5,0.9,0.7C308.9,824.2,308.6,823.9,308.3,823.7z M309.5,824.6c0.6,0.4,1.1,0.8,1.6,1.2
		C310.6,825.3,310,824.9,309.5,824.6z M311.4,825.9c0.3,0.2,0.6,0.4,0.9,0.6C312,826.4,311.7,826.2,311.4,825.9z M312.9,827
		c0,0,0.1,0.1,0.1,0.1C313,827.1,312.9,827,312.9,827z M313.2,827.2c0.1,0,0.1,0.1,0.2,0.1C313.3,827.3,313.3,827.3,313.2,827.2z
		 M313.5,827.5c0.1,0,0.1,0.1,0.1,0.1C313.6,827.5,313.6,827.5,313.5,827.5z M313.9,827.7c0,0,0.1,0.1,0.1,0.1
		C314,827.8,314,827.8,313.9,827.7z"/>
	<path class="st35" d="M595.3,575.3c0,0-2.2-13.4,0-17.3c2.5-4.4,3.1-10.3,8.7-10.9c0,0,6.6-5.6,8.2-5.1c1.7,0.5,1.7,2.5,1.9,3.4
		s1.8,5.9-7,12.7c0,0,0.5,1.7,1.9,2.3c0,0-3.6,6.8-4.6,10.4C603.4,575,595.3,575.3,595.3,575.3z"/>
	<path class="st51" d="M553.6,536.1c0,0-1.9,9.6,5,15.8l11-1.2l-6.2-19.1L553.6,536.1z"/>
	<path class="st52" d="M600.2,513.7l-37.2,12.2c0,0-10.1,19.9,9.7,30l45.1-10l-12.6-34.9L600.2,513.7z"/>
	<path class="st51" d="M615.3,512.9c0,0-5.7-6.5-10.2-1.8c-4.5,4.7-7.3,9.1-2.4,21.7c4.9,12.6,17,18.7,19.9,7.3L615.3,512.9z"/>
	<path class="st53" d="M667.9,464.6c0,0-37.8,49-61.2,50.7c0,0-6,8.2,2.5,22.4c0,0,2.8,6.9,13.4,2.4s73.9,17.5,73.9,17.5
		L667.9,464.6z"/>
	
		<ellipse transform="matrix(0.9525 -0.3047 0.3047 0.9525 -122.2339 233.862)" class="st54" cx="688.2" cy="508.6" rx="24.6" ry="50.4"/>
	<path class="st52" d="M580.2,550.8l11.9,14.6h8.7l23,34.2l11.4-10.8c0,0-5.7-3.5-7.9-3.7l-17.5-31.8l5.9-7.3L580.2,550.8z"/>
	
		<ellipse transform="matrix(0.9525 -0.3047 0.3047 0.9525 -122.5392 234.206)" class="st55" cx="689.1" cy="509.7" rx="20.2" ry="41.3"/>
	<path class="st51" d="M618.7,545.7l-6.7,8.7l16.2,28c0,0,5.7,2.6,7.9,4.6l-1,1.9l-9.5-2.4l-18-32.9l7.6-8.8L618.7,545.7z"/>
	<path class="st51" d="M611,554.7c0,0,3.5-0.3,5,0l6,6.1l-4.1,4.7L611,554.7z"/>
	<path class="st53" d="M671.4,497.6c0,0,5,0.7,11.5,0.1c6.5-0.6,9.1,15.2,4.8,16.3l-10.4,6.5c0,0-2-4.9-3.7-12.2
		C672.8,505.1,671.9,501.7,671.4,497.6z"/>
	
		<ellipse transform="matrix(0.9531 -0.3025 0.3025 0.9531 -120.799 231.2929)" class="st52" cx="686.3" cy="505.6" rx="3.1" ry="8.4"/>
	<path class="st56" d="M644.6,574.2c0.5-5.9-6.4-11.1-6.4-11.1c0.7-3.8-5.5-11-5.5-11s-0.4-10.3-5.6-8.6c-4.6,1.5-11.5,3.5-12.8,3.8
		c0,1.3-0.4,2.4-0.7,3.2c-0.7,2.3-6.6,7.8-6.6,7.8s-0.7,1,1.9,2.3c0,0-6.3,8.8-4.2,13.7c0,0,1.2,2.1,1.9,2.3c0,0-4,9.2,2.7,8.8
		c0,0,4,5.9,9.2,2.2c0,0,7-2.5,9.4-4.1c0,0,0.7,1.6,3.3,2.5c0,0-1.1,1.7-0.1,2.8s3.8,2.8,2.6,6c-0.3,1-0.5,2.8-0.8,3.8
		c0.3-0.4,1.2-1,1.5-1.4c4.2-5.3,8.5-5.8,11.1-11.7C648.2,579.7,644.6,574.2,644.6,574.2z"/>
	<path class="st53" d="M671.4,497.6l-5.1-0.4c0,0-0.3,9.7,6.7,26.7l7.6-5.5L671.4,497.6z"/>
	
		<ellipse transform="matrix(0.9531 -0.3025 0.3025 0.9531 -120.799 231.2929)" class="st55" cx="686.3" cy="505.6" rx="1.5" ry="4.1"/>
	<path class="st57" d="M411.5,704.1c0,0,2.6,11.6,57.3,25.3c0,0-41.3-5.1-53.3-12.6c-11.9-7.5,0,0,0,0"/>
	<path class="st57" d="M534.8,717.3c0,0-16.9,12.7-27,12.1c0,0,13,1,20.5,0L534.8,717.3z"/>
	<path class="st57" d="M585.1,612.9c0,0-6.2,4.3-4.9,11.5c1.4,7.2-3.6,6.6-3.4,14.5c0.3,13.6-4.8,14.2-6.9,27.6
		c-2.3,14.9-10.6,21.7-6.8,28.8c0,0,9.5-9.8,10.5-22.4c1.1-12.6,2.8-10.4,6-16.9c3.3-6.5,2.6-15.2,1.6-18.8c-1-3.6,2-3.9,3.9-10.4
		C587,620.5,581.5,620.4,585.1,612.9z"/>
	<path class="st57" d="M413.7,644.6c0,0,3-7.9,6.1,9.5s3.8,28.6,10.6,35.1c6.8,6.5,22.6,17.2,12.9,14.9c-9.7-2.3-29.2-9.6-31.5-18.5
		S413.7,644.6,413.7,644.6z"/>
	<path class="st57" d="M540.6,678.8c0,0-7,22.5-22.2,25.6s-16.4,8.9-5.5,7.5c10.9-1.4,25.1-12.9,25.5-16.4
		C538.7,692,540.6,678.8,540.6,678.8z"/>
</g>
<g id="CHICA_3">
	<polygon class="st58" points="335.3,556.3 326.9,587.3 304,583.6 306.6,560.1 	"/>
	<g>
		<path class="st31" d="M365,522.4l-64.6,27c0,0,1.9,11.8,2.4,17.1c0.9,9,0.3,19.3-0.4,21.5c0.3-0.7,0.6-4,6.5-15.5
			c3-6.3,0.9-16.1,17.7-19.7c25.2-5.4,32.2-16.8,32.2-16.8L365,522.4z"/>
		<path class="st58" d="M353.4,443.5c0,0-7.5-10.1-16.8-9.2c-9.3,1-11.6-5.4-17.6-5.8c-6-0.4-38.4-2.6-43.1,30.4
			c0,0-19.6,8.8-18.7,22.3c1.4,20.6,16.3,60.2,31.9,68.1c14.8,7.5,68.4-18.5,75.3-24.3c6.9-5.8,10.1-7.5,13.6-24.8
			C381.4,483.4,372.9,465.2,353.4,443.5z"/>
		<path class="st59" d="M287.6,462.7c0,0,7.9-3.5,12.3,3.7c4.1,6.8,2.7,9.9,2.7,9.9S303.2,466.6,287.6,462.7z"/>
		<path class="st59" d="M348.4,484.3c0,0-3-6.4-11.5-6.2c-8.5,0.1-11.9,6.4-11.9,6.4S331.9,476.4,348.4,484.3z"/>
		<path class="st12" d="M322,489.3c0,0,7,10.8,16.9,9.8c11-1.1,9.5-13.5,9.5-13.5S330.1,472.7,322,489.3z"/>
		<path d="M330.3,497.2c0.7,0.3,1.3,0.5,1.9,0.7c0.7,0.2,1.2,0.4,2,0.6c0.7,0.1,1.2,0.2,2,0.2c0.7,0.1,1.2,0.1,1.9,0.1
			c0.6,0,1.1-0.1,1.5-0.2c0.8-0.2,1.8-0.5,2.8-1c1.5-0.7,3.4-2,4.8-3.9c0,0-1.2,4.5-7.9,5.7C339.2,499.5,335.3,500,330.3,497.2z"/>
		<path class="st12" d="M302.1,479.8c0,0-10.4,3.7-16.1-2.2c-4.4-4.5,0.7-13.6,0.7-13.6S305.3,464.8,302.1,479.8z"/>
		<path d="M293.1,480.9c-0.6-0.2-1.6-0.5-2-0.6c-0.2-0.1-1-0.3-1.6-0.7c-1.9-0.9-3.1-2.3-3.3-2.5c-0.4-0.5-1-1.2-1.4-2.3
			c0-0.1-0.1-0.5-0.2-1.1c-0.2-1-0.2-1.9-0.1-3.4c0,0-1.6,3.1,1.3,7.4C285.7,477.7,288.9,480.6,293.1,480.9z"/>
		<path class="st34" d="M286.7,464c0,0-0.3,0.3-0.8,1.6c0,0,14.8,1.7,16.2,14.2c0,0,1-5-0.2-6.9C301.9,472.9,297.6,462.6,286.7,464z
			"/>
		<path class="st60" d="M294.5,498c1.2,0.5,3.1,1.4,4.8,3.1c1.4,1.4,1.4,2.1,2.6,2.8c1.9,1.1,3.5,0.3,6.3,0.5c1.6,0.1,3.8,0.5,6.4,2
			c-0.1,0.3-0.3,0.8-0.7,1.2c-0.7,0.8-2.2,1.8-5.2,2.9c-5.2,2-8.1,2.4-9.9,1.2c-0.7-0.4-1.1-1-1.7-2C296,507.8,294.3,504,294.5,498z
			"/>
		
			<ellipse transform="matrix(0.3498 -0.9368 0.9368 0.3498 -251.2254 582.6412)" class="st61" cx="294.1" cy="472.3" rx="6.3" ry="4.8"/>
		<path class="st62" d="M297.7,473.7c-1.1,2.5-3.5,3.9-5.4,3c-1.9-0.8-2.6-3.5-1.5-6s2.3-1.9,4.4-2
			C297.6,468.6,298.8,471.2,297.7,473.7z"/>
		<path d="M302.1,479.8c0,0,1.1-6.5-2.2-9.8c-3.2-3.2-9.4-6-13.3-6c0,0-1.2-0.8-1.6-2.6c0,0,1.5,0.9,2.9,1.2
			C289.3,462.9,305.8,466.1,302.1,479.8z"/>
		<path class="st34" d="M322,489.3c0,0,10.6-9.6,26.4,0c0,0,0.4-1.9,0.1-3.7c0,0-12.2-10-22.4-1.7C326,484,323.7,485.8,322,489.3z"
			/>
		
			<ellipse transform="matrix(0.3951 -0.9186 0.9186 0.3951 -244.8328 604.6883)" class="st61" cx="336.7" cy="488.2" rx="7.8" ry="6"/>
		<path d="M322,489.3c0,0,3.8-7,9.3-7.7s13.4,1.2,17.1,4.1c0,0,1.7,0.1,3.5-1.2c0,0-2.1-0.3-3.6-1
			C346.7,482.8,328.6,473.6,322,489.3z"/>
		<path class="st62" d="M341.1,489.9c-1.3,3-4.2,4.6-6.5,3.6s-3.1-4.2-1.9-7.2c1.3-3,2.7-2.3,5.2-2.4
			C340.9,483.7,342.3,486.9,341.1,489.9z"/>
		<g>
			
				<image style="overflow:visible;enable-background:new    ;" width="596" height="444" xlink:href="D0EFE26FA6D97627.png"  transform="matrix(0.2404 0 0 0.2404 239.5978 443.9776)">
			</image>
		</g>
		<path class="st59" d="M295.4,495c0,0-3.5,3.3-0.6,6.4C294.8,501.4,293.3,497.2,295.4,495z"/>
		<path class="st59" d="M304.9,507.1c0,0,2.7-2,5.8-0.8c0,0-0.7,0.1-1.4,0.3C309.3,506.7,306.9,507.5,304.9,507.1z"/>
		<path class="st59" d="M299.1,506.1c0,0,2.4,2.4,4.1,2.2s2-0.5,2-0.5s-0.9,1.4-2.8,1C302.5,508.8,300.3,508.2,299.1,506.1z"/>
		<path class="st59" d="M295.6,500.9c0,0,1.6-0.3,2.3,1.6c0,0,0.6,1.5,1.2,1.9l0.1,1c0,0-0.3-0.4-0.7-0.7c0,0-1.3-1.4-1.6-2.6
			C296.5,501,295.6,500.9,295.6,500.9z"/>
		<path class="st59" d="M310.6,507.9c0,0,2.7-0.5,3.3-1.3c0.6-0.8,1.1-2.9,1.1-2.9s-0.4,2-0.5,3
			C314.4,506.8,314.5,507.4,310.6,507.9z"/>
		<path class="st59" d="M306.6,471.5c0,0,1.8,7.6-2.2,13.1s-6.3,7.9-6.3,7.9s6.9-5.7,9.2-12.3C307.4,480.2,308.3,479.1,306.6,471.5z
			"/>
		<path class="st60" d="M295.3,508.8c-0.7,3.3-1.5,6.8-2.6,8.4c-0.4,0.6,0.2,1.7,1.2,2.5c0.4,0.3,0.7,0.6,1.2,0.9
			c2.7,2,4.8,0.1,2.3-2c0,0-0.1-0.1-0.1-0.1c-1.1-1-1.5-2.2-0.7-2.7l4.6-3.2c0.9-0.6,0.2-2.2-1.3-3.1l-1.5-0.9
			C296.9,507.7,295.5,507.8,295.3,508.8z"/>
		
			<ellipse transform="matrix(0.439 -0.8985 0.8985 0.439 -247.0049 580.8348)" class="st15" cx="341.6" cy="488.2" rx="1.3" ry="3.1"/>
		
			<ellipse transform="matrix(0.4217 -0.9067 0.9067 0.4217 -257.2408 543.3578)" class="st15" cx="297.4" cy="473.4" rx="1.1" ry="2.6"/>
		<g>
			
				<image style="overflow:visible;enable-background:new    ;" width="336" height="321" xlink:href="D0EFE26FA6D97622.png"  transform="matrix(0.24 0 0 0.24 309.4378 463.147)">
			</image>
		</g>
		<path d="M330.3,497.2c0.7,0.3,1.3,0.5,1.9,0.7c0.7,0.2,1.2,0.4,2,0.6c0.7,0.1,1.2,0.2,2,0.2c0.7,0.1,1.2,0.1,1.9,0.1
			c0.6,0,1.1-0.1,1.5-0.2c0.8-0.2,1.8-0.5,2.8-1c1.5-0.7,3.4-2,4.8-3.9c0,0-1.2,4.5-7.9,5.7C339.2,499.5,335.3,500,330.3,497.2z"/>
		<path class="st63" d="M360.9,472.8c0,0-4-5.1-10.1-4.3s-20.3,4-26.7,1.4c-6.4-2.6-2.7-5.9,4.1-4.6c6.8,1.2,26.2-3.6,29.6,0.1
			C361.2,469.1,360.9,472.8,360.9,472.8z"/>
		<path class="st63" d="M303.4,452.9c0,0,3.9,4.4,4.2,7c0.2,2.6-4.7,0.1-6.2-3.2s-9-6.4-9-6.4l9.1,0.3L303.4,452.9z"/>
		<path class="st64" d="M322.2,528.1c0,0-27.2,4-31.4,1.5c-4.2-2.5-5.5-18.1-5.5-18.1l6.9,9.4l36.4,6.4L322.2,528.1z"/>
		<path class="st65" d="M333.4,528c0,0-21.7-5.3-27.1-9.4c-5.4-4.1-6.8-3.5-12.4,0.1c0,0-1.8-8.6-5.9-8.3c-4.1,0.3-4.4-3.1-4.4-3.1
			s6.1,16.7,9.7,16.2C296.9,523,333.4,528,333.4,528z"/>
		<path class="st63" d="M207.1,513c4.2,2.8,8.8,5.3,13.4,7.3c5.4,2.3,6.2,3.8,2.4,8.1c-2.6,2.9-4,5.9-1.8,9.6
			c2.1,3.5,5.4,4.6,9.4,4.2c1.1-0.1,2.3,0.2,3.3,0.6c3.2,1.2,6.2,2.8,9.4,3.7c4.6,1.3,7.4,4,9.2,8.3c3.1,7.5,3.4,7.4,11.3,7.1
			c7-0.3,12.5-2.2,14.6-9.6c1.2-4.1-0.5-6.5,1.2-10.5c0.8-1.9-5.3-12.4-8.2-20.4c-4.5-11.9-4.3-23.9-4.2-30.5c0.1-4,1.2-7.5,2.4-9.9
			c0.8-0.3,1.5-0.6,2.2-1c3.9-2.2,5.9-5.6,5.6-10.1c-0.4-6.2,1.7-9.2,7.9-10.9c1.4-0.4,2.9-0.6,4.4-0.7c5.4-0.5,7.6-2.8,7.4-8.1
			c-0.1-1.7-0.4-3.4-0.5-5.1c-0.5-9.6,6.2-15.8,15.5-15.2c0.5,3.5,1,6.7,1.6,10c0.6,3.3,1.4,6.5,2.4,10.7c1-2.1,2.3-3.9,2.8-5.8
			c0.5-2.1,0-4.5,0.2-6.6c0.4-3.4,2.3-6.2,5.9-6.5c3-0.3,6,0.6,7.8,3.9c0.9,1.7,2.7,2.9,4.1,4.3c3.8,3.5,3.7,7-0.5,9.8
			c-2,1.3-4.3,2-6.5,3.1c-5.9,2.9-6.8,6.4-2.7,11.6c4.2,5.5,4.2,7.5-0.9,14.2c2-0.8,3.4-1.2,4.6-1.9c2.7-1.6,5.3-3.5,7.9-5.2
			c2.9-1.9,3.9-4.2,2.7-7.8c-2.1-6-1.9-5.9,3.8-8.3c2.2-1,4.1-2.8,6.9-4.8c0.5,4.5,1.2,8.8,1.4,13.1c0.1,2.4,0.7,4.2,2.8,5.7
			c5.2,3.8,5.7,8.8,1.5,13.5c-5.3,6-5.2,7.8,0.1,13.9c1.1,1.2,2.1,2.5,3,3.8c3.3,4.9,3.2,7.8-0.3,12.3c4.7,0.8,5.9-1.3,5.7-9.9
			c3.9-1.2,6.1,0.3,6.6,4.6c0.6,5.4-5.6,15.5-11,16.9c-2.5,0.7-5.3,0-8.8-0.2c-2.9,2.8-6.4,6.4-10.3,9.8c-6.6,5.7-15,12-23.6,14
			c-1.4,0.3-3.7,3.3-3.9,4.5c-1.3,6-1.5,7.6-2,13.8c-0.2,2,0.9,5,2.4,6.1c5.8,4.1,11.9,7.9,18.3,11.1c5.3,2.7,8.3,1.4,11.8-3.3
			c4.7-6.3,6.4-6.6,13.2-2.1c6.8,4.5,12.4,3.7,17.2-2.1c0.8-1,2-1.9,3.1-2.2c5.6-1.3,11.2-2.6,16.9-3.4c7.1-1.1,9-3.5,7.6-10.4
			c-0.5-2.4-0.8-4.8-1.3-7.6c2.9,0,5.3,0,7.7-0.1c9-0.4,13.6-8.5,9.1-16.2c-0.1-0.2-0.3-0.5-0.4-0.7c-4.3-7.1-4.3-7.1,2.4-12
			c5.2-3.8,7-13.7,3.4-20.1c1.3-1.2,2.6-2.5,4-3.6c4.6-4,5.5-8.2,2.7-13.7c-2.6-5.3-6.8-8.9-12.5-10.7c-4.5-1.5-5.9-3.5-4.8-8
			c0.8-3.1,2.3-6.1,2.9-9.3c0.5-2.6,0-5.4-0.1-8c-0.3,0-0.7,0-1,0c0.2,2.3,0.4,4.7,0.6,7c-0.4,0.2-0.9,0.4-1.3,0.6
			c-0.5-6.8-6-9.5-10.1-13.5c-3.1-3.1-8.9-6.4-5.2-12.5c0.2-0.4,0.1-1,0.1-1.5c-0.3-8.6-12.8-17.6-20.9-14.6
			c-4.1,1.5-5.9,0.1-7.9-2.8c-1-1.4-2.2-2.6-3.3-4c-2.3-4.5-4.9-6-8.8-5.6c1.5,0.7,3,1.2,4.3,2c1.6,1.1,3.1,2.5,4.6,3.7
			c1.4,2.6,2.7,5.2,4,7.9c-0.2,0.2-0.4,0.3-0.5,0.5c-4.1-4.5-8.1-9.1-12.5-14.1c-1.2,0.1-2.6,0.5-4.1,1c-4.7,1.5-9.1,2.8-12.9,6
			c-0.5,0.4-2.9-0.3-3.5-1.1c-0.9-1.2-0.7-3.1-1.5-4.4c-1.9-3.1-3.6-6.6-6.4-8.8c-2.7-2.2-6.4-3.6-9.9-4.5c-1.9-0.5-4.5,0.4-6.2,1.5
			c-3.4,2.1-6.1,2.1-9.1-0.7c-1.2-1.2-2.9-2-4.4-2.7c-2.6-1.2-4.9-0.6-6.1,2c-1.4,3.1-3.6,3-6.6,2.3c-3.5-0.8-7.3-1.2-10.8-0.8
			c-5.5,0.7-8.5,4.6-10.2,9.4c-2,5.6-6,9.2-11.6,11c-2,0.6-4.6,0.6-6.7,0.1c-8.6-2.2-16.9,4.2-15.6,12.9c0.7,4.7-1.3,6.8-5.1,8.4
			c-5.7,2.4-7.4,5.1-7,11.3c0.2,3.6,0.8,7.3,0.7,10.9c0,1.2-1.1,2.9-2.2,3.6c-2.9,1.8-4.6,3.9-4.2,7.3c0.3,3.4-2.7,3.9-5,4.7
			c-4.2,1.5-7.6,3.9-7.6,8.5c-0.1,2.7,0.9,5.6,2,8.2c0.9,2,2.8,3.6,4.1,5.5c3.1,4.6,2.6,7-1.7,10.3
			C203.6,507.5,203.3,510.4,207.1,513z M421.4,478.3c12,7.1,12.5,15.3,1.8,22.2C429.1,493.1,426.8,486,421.4,478.3z M403.4,550.5
			c-0.1-3.8,2.3-4.3,5.1-4.8c2.5-0.4,5.3-0.9,7.1-2.3c1.6-1.3,2.2-3.9,3.1-5.7C422.3,546.6,417.2,551.1,403.4,550.5z M388.8,569
			c9.9-1.5,8.9-9.8,11.4-16.8C405.7,564.3,401.3,570.5,388.8,569z M363,474.3c1.6,2.2,0.2,5-1.2,7.8c-1.8,3.4-3.5,6.9-5.3,10.4
			c-2.1-3.2,0.2-5.5,1.6-8.1C359.8,481,361.4,477.5,363,474.3z M349.4,446.5c1.5,1.2,1.6,3.3-0.7,5.1c-1.5,1.1-3.4,2-5.3,2.4
			c-5.8,1.2-6.8,2.9-4.3,8c2.2,4.6,1.4,6.5-3.7,8.6c-0.4-2.2-0.5-4.3-1-6.3c-1.5-5.7-0.7-7,4.6-10
			C342.6,452.1,345.7,449.2,349.4,446.5z M293.2,397c1-1.5,1.9-2.5,2.6-3.8c2.1-4.1,3.3-4.3,7.6-0.8
			C300.1,394.1,298.4,398.3,293.2,397z M291.3,455.9c0.9-4.9,1.7-10,2.6-15.1c0.2,0,0.5,0.1,0.7,0.1c0.4,2.9,0.9,5.9,1.2,8.8
			C296.2,453.9,294.8,455.4,291.3,455.9z M222.6,445.7c-0.7-9.2,7.3-9.6,12.1-13.7C235.2,440.7,227.4,441.4,222.6,445.7z
			 M221.1,518.7c10.1,1.4,12,4.7,8.9,12.9c-1,2.5-0.4,5.7-0.6,8.9c-2,0.4-4.6,0.2-6.4-2.3c-2-2.8-1.1-5.4,0.7-8
			C228,524.2,227.8,522.9,221.1,518.7z M216.4,466.9c1.4-2,2.8-4,4.3-6c0.5,0.4,1.1,0.7,1.6,1.1c-1.4,2-2.9,4-4.3,5.9
			C217.4,467.6,216.9,467.3,216.4,466.9z M210.8,494.6c-1.5-1.9-3-3.7-4.4-5.6c-0.7-0.9-1.2-1.8-1.7-2.7c-2.7-5.2-0.9-9.8,5.8-12.3
			c-7.8,7.5-4.9,13.9,1.4,20.2C211.4,494.4,211.1,494.5,210.8,494.6z"/>
	</g>
	<path class="st66" d="M358.6,589.6c0,0,3.9,6.1,6.9,8.1c3,2,0.8,7.1,0.3,10c-0.5,2.8-4.4,4.1-0.6,11.2c3.8,7,25,24.9,13.2,64.9
		s-39.9,114.1-39.9,114.1c-17.2,3.4-38.2,6.1-62.2,6.2c-19.3,0.1-36.6-1.5-51.4-3.7c-1.4-3.5-6.5-8.7-3.4-12.2
		c11-12,6.6-28.7,11.1-41c-5.1-2.4,1.6-5.5-6-13c-9.4-9.3,4.1-12.9-3.7-37.4l1-4.1c0,0,4.5-33,4.3-37.5l15.5-19.9
		c0,0,10.7-2.3,17-8.5c6.3-6.2,21.2-18.8,21.2-18.8s12.2-10.6,25.8-11c13.5-0.4,7.3,1.8,17.6-1.4
		C335.6,592.5,358.6,589.6,358.6,589.6z"/>
	<path class="st67" d="M283.2,579.7c0,0-8,16.1-8.6,24.8c0,0,1.5-18.7,7.3-29.9c0,0,4.4-5.8,20.6-11c0,0,1.1,8,0.8,14.5l-8.9,3.5
		l-7.8,16.7C286.6,598.3,285.5,582.6,283.2,579.7z"/>
	<path class="st68" d="M362.8,594.5c0,0,6-1.9-0.3-8.4s-2.5-14-8.6-14.7s-59.5,5.3-59.5,5.3s-11.9,24.3-12.4,31.3
		c0,0,21.6-16,33.9-9.6c0,0,5.5,1.3,16.7-2.6c11.2-4,27.7-1.5,27.7-1.5L362.8,594.5z"/>
	<path class="st58" d="M239.8,617c0,0-0.7,2.3,3.2,3.1s4.4-4.2,8.3,2.2c0,0,2.7,15.6,0.6,19.3s-8.1,12.6-10.9,15.3
		c-2.8,2.7-8.2,6.8-8.6,0.3c0,0-4.7,3.8-7.1-1.9c0,0-7.2,8.9-10.3-4.5c0,0-5.2,2.8-7-1.7l-5.1,0.2c0,0-3-9.8-1.7-15.4l9.6-15.8
		c0,0,1.5,0.4,6.3-0.2c0,0,3.9,0,9-1.9l3.5,1.5c0,0,0,0,5.1-0.2C234.7,617.1,238.2,614.4,239.8,617z"/>
	<path class="st58" d="M179,654.4c0,0,0.6-23.3,0.6-38.8c0-15.5,5.2-39.9,5.2-39.9s4.6-13.2,9.5-20.6c0,0,14.2,0.5,16.8-0.5
		c2.6-1,8-1.7,8.6-8.2c0.6-6.5,11.2-7.1,11.2-7.1s4.2,1.4,5.1-2.2s3.1-7.4,3.1-7.4s4.9-2-7.9-2.6c0,0,2.6-2.4,8.5-6.2
		s-7.5-9.6-7.5-9.6S216.1,500.8,211,495c0,0-1.4-2.8-7,9.3c0,0-3,0.1-7.8,2.9c0,0-4.6-0.9-7.7,9.1c0,0-25.2,62.8-38.1,82
		s-23.5,61.5-24.1,91.1c0,0-6.1,19.4,19.2,15.5c25.3-3.9,81-11.3,81-11.3s13-13.9,10.1-34.2s-45.8-11.6-51.8-8.2
		C179,654.4,179,654.4,179,654.4z"/>
	<path class="st69" d="M337.1,794.1c-0.4-0.9-0.8-1.9-1.2-3C336.3,792,336.7,793,337.1,794.1z"/>
	<path class="st69" d="M335.6,790.1c-0.4-1.2-0.9-2.3-1.3-3.4C334.6,787.6,335.1,788.8,335.6,790.1z"/>
	<path class="st69" d="M221.1,842.9h125.4c0-13-1.8-29.1-7.9-45.2c0,0-60.7,11-106.3,3.6l-4.5-0.6c0,0-5.1,27.1-7.5,42.6l0.5,0.1
		C220.6,843.2,220.8,842.9,221.1,842.9z"/>
	<path class="st67" d="M216.4,695l10.2-1.5c0,0-2.3,6.3-3.8,8.2C221.4,703.7,218,701.8,216.4,695z"/>
	
		<linearGradient id="SVGID_00000006680067652559710410000008173671229920680089_" gradientUnits="userSpaceOnUse" x1="239.7644" y1="186.9354" x2="380.6708" y2="180.2945" gradientTransform="matrix(1 0 0 -1 0 841.2753)">
		<stop  offset="0" style="stop-color:#A33439"/>
		<stop  offset="8.320000e-02" style="stop-color:#B63A41"/>
		<stop  offset="0.1994" style="stop-color:#CD4049"/>
		<stop  offset="0.3123" style="stop-color:#DC444F"/>
		<stop  offset="0.4193" style="stop-color:#E64652"/>
		<stop  offset="0.514" style="stop-color:#E94753"/>
	</linearGradient>
	<path style="fill:url(#SVGID_00000006680067652559710410000008173671229920680089_);" d="M328.4,697.1c0,0-42.3,20.9-69.7,18.7
		c0,0-9.9-21.4-18.1-12.1c-8.2,9.3-15,8.4-15,8.4l-10.8-17l11.8-1.6c0,0,11.9-19.7,10.3-32.9c4.3-5.5,8-9.5,10.6-12.2
		c2.8-2.9,1.5-4,4-7.7c0.8-3.9-0.2-5.4,1.2-8.3c1.1-2.4,3.2-2.5,7.1-5.2c3.5-2.3,4.7-4.2,7.6-7.2c4.8-5,9.3-8,15.5-12.2
		c1.9-1.3,13.3-9,18.9-10.4c14-3.6,35.9,20.4,54.2,55.9L328.4,697.1z"/>
	<path class="st58" d="M239.8,617c0,0-0.7,2.2,3.2,3.1s4.4-4.2,8.3,2.1c0,0,2.7,15.4,0.6,19.1s-8.1,12.4-10.9,15.1
		c-2.8,2.7-8.2,6.7-8.6,0.3c0,0-4.7,3.7-7.1-1.9c0,0-7.2,8.8-10.3-4.4c0,0-5.2,2.8-7-1.7l-5.1,0.2c0,0-3-9.7-1.7-15.2l9.6-15.7
		c0,0,1.5,0.3,6.3-0.2c0,0,3.9,0,9-1.9l3.5,1.5c0,0,0,0,5.1-0.2C234.7,617.1,238.2,614.5,239.8,617z"/>
	<path class="st71" d="M241.7,626.4c0,0,2.3,13.7-1.5,18c-3.8,4.4-7.6,13-7.6,13s0.7,4.6,3.3,3.3c2.6-1.3,0,0,0,0s-2.8-2.7,0.5-7.9
		c3.3-5.2,8.1-10.8,7.6-14.1C243.5,635.5,241.7,626.4,241.7,626.4z"/>
	<path class="st71" d="M230.5,626.4c0,0,1.6,11.2-1,15.9c-2.6,4.7-6.6,6.9-3.9,13.2c2.6,6.3,0,0,0,0s-2.3-3.3,1.5-7.8
		C230.8,643.2,233.3,640.4,230.5,626.4z"/>
	<path class="st71" d="M219.3,627.7c0,0,3.1,10.3-0.8,14.7s-3.2,8.7-3.2,8.7s1.9-3,2.6-5.8c0.6-2.9,4.6-4.4,3.9-8.6
		C221.1,632.4,219.3,627.7,219.3,627.7z"/>
	<path class="st71" d="M208.3,632c0,0,1.3,6.8,0,9.4s-0.9,6.7-0.1,8.1s0,0,0,0s0.6-5.9,1.4-8.4C210.5,638.5,208.3,632,208.3,632z"/>
	<g>
		
			<image style="overflow:visible;enable-background:new    ;" width="337" height="325" xlink:href="D0EFE26FA6D9762D.png"  transform="matrix(0.2393 0 0 0.2393 445.9978 457.2627)">
		</image>
	</g>
	<g>
		
			<image style="overflow:visible;enable-background:new    ;" width="336" height="319" xlink:href="D0EFE26FA6D9762E.png"  transform="matrix(0.2407 0 0 0.2407 336.5578 250.873)">
		</image>
	</g>
	<path class="st72" d="M254.7,742.1c0,0,15.4-4.6,18.5-1.9s-36,11.6-40.4,7C232.7,747.2,244.9,746,254.7,742.1z"/>
	<path class="st72" d="M347,775.2c0,0-69.4,24.5-122,25.1c0,0,29.9,10.6,113.6-2.6L347,775.2z"/>
	<path class="st72" d="M364.3,610.8c0,0-46.8,0.6-24.7,5c22.1,4.4,25.6,3,25.6,3S363,613.8,364.3,610.8z"/>
	<path class="st72" d="M310,704.1c0,0,37.9-28.6,45.9-51s0,0,0,0s-1.4-10.7-13.4-27.8c-11.9-17.1,0,0,0,0s16.8,17.6,19,26.3
		C363.8,660.4,331.2,695.8,310,704.1"/>
</g>
</svg>
